<?xml version="1.0" encoding="UTF-8" standalone="no"?>
<!DOCTYPE svg PUBLIC "-//W3C//DTD SVG 1.1//EN" "http://www.w3.org/Graphics/SVG/1.1/DTD/svg11.dtd">
<svg width="100%" height="100%" viewBox="0 0 5000 5000" version="1.1" xmlns="http://www.w3.org/2000/svg" xmlns:xlink="http://www.w3.org/1999/xlink" xml:space="preserve" xmlns:serif="http://www.serif.com/" style="fill-rule:evenodd;clip-rule:evenodd;stroke-linejoin:round;stroke-miterlimit:1.41421;">
    <rect id="Монтажная-область1" serif:id="Монтажная область1" x="0" y="0" width="5000" height="5000" style="fill:none;"/>
    <clipPath id="_clip1">
        <rect x="0" y="0" width="5000" height="5000"/>
    </clipPath>
    <g clip-path="url(#_clip1)">
        <g id="Base">
            <path d="M16.13,112.244C30.041,47.726 47.95,1.966 48.245,1.223C48.434,0.742 48.81,0.358 49.287,0.154C49.759,-0.048 50.298,-0.051 50.777,0.144L107.037,23.137L111.506,12.538C111.921,11.558 113.048,11.095 114.033,11.501L192.416,43.881C193.361,44.271 193.838,45.325 193.51,46.293L170.119,115.322C192.059,121.24 386.74,173.753 410.508,179.913C418.892,150.57 432.158,130.742 432.294,130.541C432.849,129.718 433.938,129.451 434.812,129.92L437.879,131.562C441.524,125.52 455.478,103.89 480.323,82.554C507.198,59.473 552.71,31.96 616.909,31.96C685.195,31.96 732.914,62.822 760.92,88.713C787.003,112.822 801.314,137.26 804.899,143.808L889.004,102.581C889.823,102.18 890.813,102.404 891.378,103.123L892.625,104.706L1035,34.291C1035.96,33.819 1037.13,34.208 1037.6,35.168C1038.07,36.128 1037.68,37.289 1036.72,37.763L1036.36,37.945C1039.73,45.159 1056.08,80.898 1065.91,117.157L1067.2,116.805C1068.22,116.526 1069.28,117.121 1069.57,118.14C1098.89,220.415 1085.07,312.012 1068.31,370.844C1052.24,427.254 1030.45,465.186 1025.47,473.451L1072.58,501.878C1073.48,502.424 1073.78,503.591 1073.26,504.506C1068.15,513.337 1061.98,522.519 1057.72,528.635L1111.17,564.162C1112.06,564.752 1112.3,565.954 1111.71,566.845C1111.34,567.407 1110.72,567.709 1110.1,567.709C1109.73,567.709 1109.36,567.604 1109.03,567.385L1108.15,566.806C1097.88,582.938 1084.58,599.892 1081.12,604.25L1082.02,604.953C1082.87,605.611 1083.02,606.828 1082.36,607.671C1081.7,608.515 1080.48,608.665 1079.64,608.007L1067.3,598.376L1027.46,644.533L1056.12,672.892C1056.14,672.91 1056.16,672.928 1056.17,672.946L1116.2,734.991C1116.94,735.759 1116.92,736.986 1116.15,737.729C1115.78,738.093 1115.29,738.274 1114.81,738.274C1114.3,738.274 1113.8,738.076 1113.42,737.685L1111.8,736.013C1099.37,749.305 1083.47,764.03 1065.1,779.321C1065.4,779.698 1065.6,779.945 1065.68,780.044C1066.12,780.582 1066.06,781.371 1065.53,781.829C1065.31,782.021 1043.26,801.213 1023.25,814.889C1023.02,815.042 1022.77,815.115 1022.52,815.115C1022.11,815.115 1021.72,814.926 1021.47,814.572L1020.81,813.65C1002.19,827.075 984.645,838.392 969.154,846.947L969.803,848.064C970.341,848.989 970.027,850.174 969.103,850.711C968.795,850.89 968.462,850.974 968.131,850.974C967.464,850.974 966.815,850.629 966.456,850.009L923.91,776.79C913.303,783.012 902.576,788.895 891.74,794.433C843.6,819.035 793.32,836.855 741.353,847.784C713.052,854.245 683.568,858.199 653.183,859.604C640.719,860.354 628.177,860.73 615.564,860.73C501.189,860.73 405.368,825.313 345.124,795.602C279.839,763.404 241.047,730.738 240.661,730.412C239.876,729.747 239.749,728.579 240.375,727.761L278.77,677.439L258.463,660.77L257.295,662.13L268.768,671.584C269.57,672.245 269.708,673.422 269.079,674.249L214.472,746.24L214.472,781.865C214.472,782.935 213.604,783.801 212.536,783.801L116.945,783.801C116.428,783.801 115.921,783.65 115.557,783.283C115.194,782.917 115.05,782.366 115.055,781.849L115.057,647.563C115.061,646.969 115.338,646.414 115.805,646.049L186.319,591.408C187.141,590.771 188.319,590.895 188.988,591.691L198.415,602.88L199.705,601.777L182.221,580.578L132.096,620.112C131.272,620.763 130.074,620.636 129.402,619.821C109.607,595.815 89.313,563.042 70.839,525.313C60.397,504.294 47.185,474.724 35.106,438.91C13.986,377.453 0,311.364 0,251.897C0,238.172 0.554,224.509 1.544,211.053C3.26,177.301 8.134,144.271 16.13,112.244ZM774.987,835.484C773.625,830.461 770.42,817.927 767.602,806.833L740.477,814.274C740.223,814.344 739.949,814.307 739.722,814.17C739.495,814.034 739.335,813.811 739.275,813.552L707.88,673.944C701.619,675.775 672.782,683.583 621.329,683.584C565.991,683.584 480.883,672.41 389.286,619.236L334.297,711.653L333.293,713.309L300.343,766.793C313.796,774.859 329.409,783.537 346.949,792.183C369.026,803.065 395.909,814.719 426.749,825.093C458.924,835.454 500.624,846.369 547.809,852.73C569.513,855.362 592.148,856.857 615.564,856.857C670.118,856.857 723.467,849.646 774.987,835.484ZM1018.9,810.955C1000.36,824.314 982.896,835.569 967.481,844.068L968.83,846.389C984.303,837.846 1001.83,826.539 1020.44,813.124L1018.9,810.955ZM1016.98,808.261C998.534,821.547 981.156,832.738 965.808,841.188L967.157,843.51C982.554,835.022 999.997,823.778 1018.52,810.429L1016.98,808.261ZM1015.07,805.567C996.714,818.78 979.418,829.907 964.136,838.31L965.484,840.63C980.815,832.191 998.176,821.011 1016.61,807.735L1015.07,805.567ZM1013.16,802.872C994.889,816.014 977.675,827.079 962.462,835.43L963.811,837.752C979.076,829.36 996.355,818.243 1014.7,805.041L1013.16,802.872ZM761.076,777.595L768.17,804.679C768.382,804.651 768.598,804.694 768.786,804.803C769.009,804.933 769.172,805.149 769.236,805.401C771.788,815.447 775.456,829.791 776.844,834.971C791.963,830.762 806.925,825.954 821.712,820.554L802.162,764.512L761.076,777.595ZM1011.24,800.177C993.069,813.246 975.938,824.247 960.789,832.55L962.138,834.872C977.334,826.531 994.531,815.477 1012.78,802.346L1011.24,800.177ZM1009.33,797.482C991.244,810.48 974.195,821.419 959.116,829.671L960.465,831.993C975.595,823.7 992.71,812.71 1010.87,799.651L1009.33,797.482ZM1007.42,794.788C989.422,807.713 972.455,818.588 957.442,826.791L958.792,829.114C973.853,820.873 990.885,809.945 1008.96,796.956L1007.42,794.788ZM1005.5,792.092C987.594,804.95 970.709,815.763 955.77,823.913L957.119,826.234C972.113,818.042 989.063,807.178 1007.04,794.262L1005.5,792.092ZM1003.59,789.397C985.766,802.187 968.963,812.937 954.097,821.034L955.446,823.355C970.367,815.216 987.235,804.414 1005.13,791.566L1003.59,789.397ZM996.702,779.697C979.203,792.226 962.696,802.749 948.073,810.668L953.773,820.476C968.621,812.389 985.407,801.65 1003.22,788.871L996.702,779.697ZM989.252,608.503L980.667,600.399L869.773,685.619L892.349,723.354L828.807,753.935L805.362,694.475L809.054,692.461L797.514,666.091L735.409,687.111L754.172,757.744L796.03,743.94C796.532,743.777 797.074,744.041 797.246,744.54L823.529,819.887C906.059,789.445 983.13,740.514 1051.99,674.25L1024.15,646.702C1023.87,646.629 1023.61,646.495 1023.38,646.298C1023.08,646.038 1022.88,645.706 1022.78,645.35L988.803,611.726C988.05,610.98 988.036,609.768 988.772,609.005C988.791,608.986 988.955,608.815 989.252,608.503ZM236.557,137.245C197.884,126.824 167.948,118.747 167.12,118.524C166.603,118.384 166.167,118.038 165.916,117.568C165.664,117.095 165.618,116.539 165.788,116.034L189.26,46.769L114.329,15.814L109.862,26.406C109.448,27.384 108.325,27.848 107.345,27.446L51.145,4.478C49.534,8.734 45.314,20.206 40.02,37.027L96.578,56.53C96.99,56.673 97.246,57.067 97.229,57.485L114.015,63.342L125.045,32.12L175.034,53.453L174.938,53.737L152.86,118.166L152.568,118.089L100.655,104.095L113.811,63.954L97.069,58.112L79.319,115.304L188.014,143.979C188.521,144.112 188.829,144.623 188.711,145.133C188.611,145.556 178.867,188.069 178.867,243.372C178.867,370.795 241.991,468.837 242.628,469.813C242.773,470.035 242.82,470.304 242.762,470.561C242.701,470.819 242.539,471.04 242.313,471.175L148.768,526.773L182.347,575.954C182.959,575.903 183.584,576.144 184.003,576.652L203.935,600.817C204.265,601.216 204.419,601.73 204.369,602.244C204.318,602.757 204.062,603.23 203.662,603.554L199.379,607.086C198.556,607.75 197.358,607.636 196.679,606.829L187.225,595.609L118.921,648.532L118.922,779.929L210.598,779.929L210.598,745.589C210.598,745.166 210.737,744.755 210.992,744.419L264.869,673.39L253.241,663.808C252.828,663.469 252.575,662.973 252.54,662.44C252.505,661.907 252.693,661.382 253.058,660.992L256.872,656.798C257.572,656.053 258.727,655.979 259.517,656.624L282.672,675.63C282.77,675.711 282.859,675.8 282.938,675.895L332.681,710.583L388.112,617.423C388.386,616.967 388.973,616.814 389.433,617.082C480.97,670.449 566.063,681.647 621.329,681.646C677.715,681.645 707.945,671.91 708.302,671.795C708.562,671.712 708.842,671.743 709.079,671.876C709.315,672.013 709.482,672.24 709.543,672.506L740.944,812.138L767.546,804.842L760.296,777.168L760.589,777.073L801.949,763.902L795.732,746.078L753.802,759.905C753.548,759.988 753.271,759.962 753.038,759.836C752.803,759.71 752.632,759.491 752.564,759.234L733.483,687.396L690.109,517.681C689.984,517.182 690.268,516.672 690.757,516.518C716.506,508.414 738.891,498.182 758.26,486.927L724.317,428.549C694.004,444.821 666.14,450.938 665.846,451.004C665.775,451.02 665.701,451.028 665.63,451.028C665.19,451.028 664.793,450.727 664.688,450.281L651.416,393.49C651.399,393.414 651.214,392.557 651.286,392.404L651.286,392.404C651.31,392.308 651.372,392.271 651.461,392.279L651.459,392.279C651.467,392.332 651.305,392.364 651.286,392.404C651.241,392.581 651.323,392.957 651.602,393.626C651.781,394.054 652.239,394.295 652.689,394.201C652.967,394.144 653.247,394.085 653.53,394.023C653.525,394.018 652,392.324 651.461,392.279C666.443,389 691.491,377.495 694.6,376.032C694.66,375.97 694.73,375.915 694.808,375.869C694.91,375.81 695.019,375.772 695.129,375.753C709.181,367.313 727.928,352.902 739.397,337.174L721.319,324.348C692.505,359.767 649.307,369.815 648.873,369.914C648.802,369.929 648.729,369.937 648.66,369.937C648.237,369.937 647.853,369.66 647.729,369.237L637.64,334.413C631.796,335.545 625.802,336.128 619.729,336.128C568.088,336.128 526.076,294.115 526.076,242.475C526.076,234.939 526.972,227.448 528.742,220.198L502.117,212.859L497.149,231.433L496.837,231.349L420.947,210.857L425.653,192.695L409.725,188.655L411.025,184.043C404.863,182.49 368.926,172.862 326.448,161.443C324.355,170.34 318.411,197.753 318.347,198.049C318.248,198.501 317.85,198.812 317.402,198.812C317.355,198.812 317.309,198.81 317.262,198.803L227.55,185.795C227.295,185.758 227.066,185.62 226.912,185.415C226.759,185.209 226.693,184.95 226.73,184.695C229.534,165.632 234.885,143.848 236.557,137.245ZM994.789,777.002C977.378,789.461 960.954,799.921 946.401,807.789L947.749,810.11C962.354,802.203 978.844,791.69 996.329,779.17L994.789,777.002ZM992.875,774.307C975.556,786.694 959.213,797.091 944.728,804.91L946.077,807.232C960.611,799.374 977.019,788.924 994.415,776.475L992.875,774.307ZM990.961,771.611C973.73,783.928 957.47,794.262 943.055,802.031L944.403,804.351C958.871,796.544 975.197,786.158 992.502,773.781L990.961,771.611ZM989.417,768.653C972.143,781.011 955.836,791.374 941.381,799.151L942.731,801.473C957.128,793.715 973.372,783.392 990.588,771.085L989.616,769.717C989.389,769.396 989.328,769.007 989.417,768.653ZM1071.39,694.245C1055.79,711.104 1034.42,730.201 1009.43,749.603C984.165,769.211 960.092,785.323 939.708,796.271L941.057,798.592C961.486,787.604 985.628,771.435 1010.97,751.761C1036.09,732.265 1057.57,713.079 1073.24,696.153L1071.39,694.245ZM1069.1,691.873C1053.57,708.663 1032.32,727.657 1007.48,746.937C982.322,766.466 958.342,782.504 938.036,793.393L939.384,795.713C959.741,784.782 983.79,768.686 1009.03,749.094C1034.01,729.703 1055.36,710.621 1070.94,693.781L1069.1,691.873ZM1066.8,689.5C1051.35,706.215 1030.22,725.106 1005.53,744.27C980.475,763.721 956.59,779.687 936.362,790.513L937.712,792.836C957.99,781.964 981.946,765.94 1007.08,746.427C1031.91,727.159 1053.14,708.18 1068.65,691.409L1066.8,689.5ZM1064.51,687.127C1049.14,703.763 1028.13,722.55 1003.59,741.605C978.628,760.977 954.838,776.87 934.69,787.635L936.038,789.955C956.238,779.146 980.1,763.196 1005.14,743.761C1029.81,724.608 1050.92,705.733 1066.35,689.036L1064.51,687.127ZM1062.21,684.756C1046.92,701.314 1026.04,719.998 1001.64,738.939C976.796,758.225 953.1,774.043 933.016,784.754L934.365,787.076C954.486,776.328 978.252,760.452 1003.19,741.095C1027.72,722.052 1048.71,703.279 1064.06,686.664L1062.21,684.756ZM1054.71,677.004C1014.89,715.331 972.153,748.116 927.244,774.821L932.692,784.196C952.749,773.502 976.421,757.7 1001.25,738.429C1025.63,719.499 1046.5,700.83 1061.76,684.291L1054.71,677.004ZM1109.5,733.638C1097.13,746.878 1081.31,761.54 1063.02,776.763C1063.69,777.588 1064.25,778.282 1064.69,778.82C1083.06,763.539 1098.93,748.827 1111.35,735.548L1109.5,733.638ZM1107.21,731.265C1094.88,744.455 1079.14,759.054 1060.93,774.207C1061.54,774.95 1062.1,775.638 1062.61,776.263C1080.89,761.05 1096.69,746.401 1109.05,733.174L1107.21,731.265ZM1104.91,728.891C1092.64,742.033 1076.97,756.57 1058.85,771.653C1059.43,772.371 1060,773.058 1060.53,773.707C1078.72,758.565 1094.45,743.978 1106.76,730.801L1104.91,728.891ZM1102.61,726.518C1090.4,739.61 1074.8,754.086 1056.76,769.1C1057.34,769.806 1057.9,770.492 1058.44,771.153C1076.55,756.08 1092.21,741.555 1104.46,728.427L1102.61,726.518ZM1100.32,724.145C1088.15,737.193 1072.62,751.608 1054.67,766.55C1055.24,767.248 1055.8,767.933 1056.35,768.601C1074.38,753.597 1089.96,739.133 1102.16,726.054L1100.32,724.145ZM1098.02,721.771C1085.91,734.769 1070.45,749.124 1052.58,764.003C1053.14,764.695 1053.71,765.379 1054.26,766.052C1072.2,751.119 1087.71,736.715 1099.87,723.68L1098.02,721.771ZM307.072,695.086L271.126,748.082L274.585,750.462C281.555,755.138 289.612,760.317 298.683,765.793L331.676,712.245L307.072,695.086ZM1095.73,719.398C1083.66,732.353 1068.27,746.649 1050.48,761.457C1051.05,762.144 1051.61,762.827 1052.16,763.504C1070.03,748.635 1085.47,734.291 1097.57,721.306L1095.73,719.398ZM1093.43,717.024C1081.41,729.932 1066.09,744.17 1048.38,758.914C1048.94,759.597 1049.51,760.279 1050.07,760.959C1067.85,746.16 1083.22,731.875 1095.28,718.933L1093.43,717.024ZM1091.13,714.651C1079.17,727.508 1063.91,741.689 1046.28,756.373C1046.84,757.052 1047.4,757.734 1047.97,758.416C1065.67,743.681 1080.98,729.454 1092.98,716.559L1091.13,714.651ZM1082.87,706.108C1071.07,718.816 1056.04,732.805 1038.66,747.27C1040.88,749.894 1043.35,752.846 1045.86,755.877C1063.49,741.201 1078.74,727.031 1090.68,714.187L1082.87,706.108ZM909.284,360.681C909.199,360.765 909.098,360.834 908.985,360.884C908.748,360.985 908.479,360.99 908.239,360.895C895.226,355.691 884.564,351.053 881.371,349.649C880.015,353.617 874.496,368.632 862.531,388.444L919.812,423.033C921.449,420.562 934.493,400.533 944.279,375.132L944.882,375.365C934.996,401.024 921.793,421.218 920.312,423.447L920.329,423.456C907.65,446.523 893.654,463.42 893.502,463.599L893.304,463.833L893.06,463.646L838.914,422.316L839.305,421.802L875.949,449.773C888.484,433.7 899.782,416.17 901.846,412.937L862.197,388.996C857.233,397.17 851.177,406.145 843.873,415.485C817.998,448.569 770.704,493.165 692.213,518.088L735.247,686.483L797.87,665.288L809.882,692.745L806.171,694.768L829.152,753.053L891.432,723.078L868.926,685.457L868.951,685.437L800.802,567.879C798.493,569.03 782.062,577.198 772.127,581.544C761.212,586.32 755.617,575.784 755.562,575.677L750.374,564.609L788.394,546.778L786.708,543.073L787.003,542.939C787.365,542.779 823.439,526.311 865.292,483.461L865.846,482.894L865.846,483.569C867.206,485.053 888.094,506.101 912.199,530.392C936.338,554.718 963.699,582.288 980.92,599.748L980.92,599.749L989.696,608.036C994.084,603.413 1013.29,582.919 1030.19,560.745L1015.05,548.966C1014.21,548.316 1014.06,547.119 1014.69,546.272L1036.84,516.818L1019.06,505.207L1029.14,487.943C1025.6,485.735 988.09,462.361 975.15,455.15L974.864,454.99L975.026,454.707C985.593,436.216 1002.21,399.958 1002.59,399.124L994.932,395.924L994.932,395.926L909.284,360.681ZM282.99,678.292L282.983,678.302L244.587,728.626C247.313,730.837 253.913,736.054 263.988,743.17L270.594,747.716L306.541,694.716L282.99,678.292ZM1080.57,703.736C1068.82,716.406 1053.84,730.348 1036.52,744.758C1037.07,745.402 1037.65,746.077 1038.24,746.777C1055.61,732.32 1070.64,718.341 1082.42,705.645L1080.57,703.736ZM1078.28,701.363C1066.56,714 1051.63,727.899 1034.37,742.26C1034.91,742.884 1035.49,743.555 1036.1,744.267C1053.41,729.863 1068.38,715.93 1080.12,703.271L1078.28,701.363ZM1075.98,698.99C1064.3,711.602 1049.4,725.468 1032.18,739.79C1032.7,740.366 1033.29,741.031 1033.94,741.774C1051.2,727.417 1066.13,713.525 1077.83,700.898L1075.98,698.99ZM1073.69,696.618C1061.91,709.335 1046.86,723.323 1029.47,737.758C1029.87,737.685 1030.3,737.806 1030.61,738.117C1030.92,738.427 1031.3,738.829 1031.75,739.313C1048.97,724.993 1063.86,711.129 1075.53,698.525L1073.69,696.618ZM980.203,599.942C962.969,582.469 935.759,555.05 911.741,530.847C874.173,492.992 866.931,485.676 865.533,484.138C825.689,524.863 791.099,541.728 787.563,543.391L789.244,547.091L751.233,564.919L756.143,575.393C756.352,575.796 761.513,585.485 771.869,580.953C782.504,576.301 800.603,567.257 800.785,567.166L801.057,567.031L869.467,685.039L980.203,599.942ZM1055.49,531.804C1053.75,534.268 1052.65,535.754 1052.62,535.803C1052,536.637 1050.84,536.837 1049.98,536.263L1045.53,533.278C1045.1,532.989 1044.8,532.541 1044.7,532.032C1044.6,531.523 1044.72,530.996 1045.01,530.569L1048.17,525.991L1039.16,520.183L1018.93,547.078L1034.08,558.863C1034.91,559.511 1035.07,560.712 1034.44,561.558C1017.59,583.876 998.065,604.828 992.878,610.309L1024.7,641.802L1065.57,594.449C1066.19,593.727 1067.24,593.574 1068.04,594.056C1071.55,589.72 1084.55,573.491 1094.75,557.898L1055.49,531.804ZM323.792,636.716C323.592,636.716 323.39,636.655 323.215,636.526C322.939,636.322 295.209,615.712 269.842,590.343C240.928,561.432 224.474,537.627 224.311,537.39C224.018,536.964 224.112,536.384 224.523,536.072L247.96,518.24C248.168,518.083 248.433,518.014 248.686,518.052C248.944,518.09 249.174,518.228 249.329,518.439C249.55,518.743 271.749,549.03 291.703,568.986C311.659,588.94 341.778,610.972 342.08,611.192C342.288,611.345 342.428,611.575 342.466,611.829C342.504,612.086 342.44,612.346 342.285,612.554L324.569,636.327C324.379,636.582 324.088,636.716 323.792,636.716ZM226.437,537.048C229.463,541.309 245.309,563.073 271.211,588.976C294.112,611.876 318.942,630.881 323.597,634.391L340.151,612.176C335.249,608.55 308.581,588.603 290.335,570.355C272.091,552.111 252.008,525.313 248.35,520.376L226.437,537.048ZM180.641,576.891L163.32,551.522L111.569,589.143C118.103,598.915 124.672,607.878 131.191,615.893L180.641,576.891ZM1105.58,565.096C1095.32,581.119 1082.09,597.924 1078.61,602.288L1080.61,603.853C1084.06,599.51 1097.35,582.565 1107.62,566.449L1105.58,565.096ZM1103.01,563.387C1092.76,579.3 1079.59,595.958 1076.09,600.326L1078.1,601.891C1081.57,597.544 1094.79,580.747 1105.05,564.739L1103.01,563.387ZM1100.44,561.677C1090.2,577.483 1077.1,593.994 1073.58,598.365L1075.59,599.93C1079.07,595.581 1092.24,578.929 1102.47,563.03L1100.44,561.677ZM1097.86,559.965C1087.64,575.663 1074.6,592.029 1071.07,596.402L1073.07,597.968C1076.57,593.617 1089.67,577.112 1099.9,561.319L1097.86,559.965ZM1095.29,558.255C1085.08,573.846 1072.1,590.066 1068.55,594.442L1070.56,596.005C1074.07,591.652 1087.12,575.292 1097.33,559.609L1095.29,558.255ZM111.182,588.562L162.926,550.946L147.099,527.765L93.384,559.691C99.243,569.921 105.197,579.58 111.182,588.562ZM316.186,532.531L307.839,539.961C307.661,540.119 307.43,540.206 307.195,540.206C307.174,540.206 307.154,540.206 307.134,540.205C306.877,540.189 306.635,540.071 306.467,539.876L282.581,512.584C282.411,512.389 282.326,512.136 282.344,511.877C282.362,511.619 282.483,511.379 282.679,511.212L297.524,498.469C297.925,498.126 298.525,498.167 298.876,498.558L322.844,525.304C323.015,525.495 323.104,525.746 323.09,526.003C323.076,526.261 322.958,526.502 322.767,526.673L317.635,531.241L329.371,543.051L333.892,537.99C334.243,537.596 334.845,537.556 335.247,537.903L362.498,561.509C362.693,561.678 362.812,561.92 362.829,562.179C362.846,562.437 362.758,562.692 362.586,562.886L349.354,577.744C349.163,577.959 348.898,578.066 348.631,578.066C348.405,578.066 348.177,577.988 347.995,577.829L320.8,554.112C320.606,553.941 320.487,553.7 320.471,553.443C320.455,553.184 320.542,552.93 320.715,552.738L328.078,544.498L316.186,532.531ZM322.812,553.296L348.546,575.738L360.487,562.331L334.701,539.991L322.812,553.296ZM22.548,101.248C12.564,144.504 3.874,197.719 3.874,251.897C3.874,353.431 44.905,474.388 92.424,558.009L146.843,525.665C146.873,525.645 146.903,525.627 146.934,525.611L240.467,470.02C234.25,460.077 176.929,365.038 176.929,243.372C176.929,192.329 185.203,152.117 186.62,145.614L77.848,116.918C77.592,116.85 77.375,116.682 77.248,116.451C77.185,116.338 77.146,116.215 77.132,116.089L22.548,101.248ZM315.908,530.186L320.753,525.872L298.066,500.557L284.682,512.044L307.281,537.866L315.248,530.773C315.296,530.65 315.37,530.535 315.47,530.436C315.596,530.31 315.748,530.227 315.908,530.186ZM1002.96,399.276L1003.19,399.381C1003.02,399.747 986.407,436.022 975.75,454.745C989.551,462.474 1029.35,487.31 1029.75,487.563L1030.02,487.728L1019.92,505.003L1037.24,516.304C1037.86,515.589 1038.93,515.431 1039.74,515.955L1051.94,523.818C1052.38,524.102 1052.69,524.553 1052.79,525.067C1052.89,525.581 1052.79,526.114 1052.49,526.545L1049.31,531.153L1050.59,532.008C1051.2,531.151 1052.06,529.957 1053.09,528.496C1053.14,528.336 1053.22,528.18 1053.31,528.033C1053.43,527.856 1053.57,527.705 1053.73,527.58C1057.69,521.927 1063.76,512.994 1068.94,504.208L1021.8,475.758C1021.35,475.489 1021.03,475.05 1020.91,474.54C1020.79,474.03 1020.88,473.495 1021.17,473.056C1021.35,472.775 1034.17,452.546 1048.04,418.103L1002.96,399.276ZM615.019,520.989C614.994,520.989 614.97,520.987 614.946,520.986C552.615,516.368 499.378,498.962 456.716,469.248C422.571,445.468 395.094,413.802 375.048,375.133C340.937,309.329 340.209,245.14 340.206,244.499C340.205,244.241 340.307,243.991 340.49,243.808C340.672,243.627 340.892,243.548 341.178,243.525C341.986,243.53 422.297,244.022 459.36,244.022C474.155,244.022 477.337,243.943 477.857,243.892C478.04,243.846 478.237,243.853 478.422,243.919C478.774,244.045 479.024,244.364 479.059,244.737C492.149,378.906 610.524,380.448 615.556,380.448C615.796,380.431 616.127,380.546 616.31,380.73C616.495,380.912 616.661,381.161 616.66,381.42L615.987,520.025C615.985,520.293 615.872,520.55 615.675,520.731C615.496,520.898 615.262,520.989 615.019,520.989ZM342.163,245.469C342.398,253.776 345.178,313.344 376.803,374.31C408.003,434.46 474.475,508.302 614.055,518.977L614.718,382.376C602.893,382.147 490.491,376.498 477.224,245.845C475.296,245.946 470.724,245.96 459.36,245.96C424.538,245.96 351.551,245.526 342.163,245.469ZM889.969,107.592L889.304,106.747L804.921,148.11C803.965,148.58 802.813,148.188 802.336,147.239C802.197,146.959 788.034,119.016 758.184,91.456C730.699,66.082 683.878,35.833 616.909,35.833C553.898,35.833 509.226,62.839 482.847,85.492C455.709,108.797 441.88,132.319 440.43,134.859L457.337,144.924C458.735,142.637 468.6,126.736 476.608,119.405C476.519,119.11 476.571,118.778 476.777,118.518C477.29,117.874 529.132,54.122 619.054,54.122C679.038,54.122 721.267,82.167 746.13,105.691C773.055,131.169 785.986,157.011 786.113,157.27C786.348,157.747 786.157,158.323 785.682,158.562L757.948,172.593C760.648,178.076 774.775,208.434 774.775,242.813C774.775,300.048 741.89,337.287 741.557,337.656C741.479,337.744 741.387,337.814 741.289,337.866C729.818,353.807 710.935,368.439 696.644,377.101L759.931,485.949C798.732,463.079 825.248,436.156 842.346,414.293C870.285,378.57 879.77,348.351 879.863,348.05C879.944,347.785 880.136,347.568 880.388,347.454C880.639,347.338 880.928,347.337 881.182,347.451C881.299,347.502 892.985,352.688 908.049,358.735C919.186,329.824 925.051,304.484 929.615,265.688C934.031,228.159 922.847,175.252 922.734,174.723C922.626,174.217 922.931,173.718 923.429,173.584L998.159,153.49L994.296,140.747L931.185,157.996C930.436,158.2 929.636,157.938 929.154,157.328L891.08,109.001C890.684,108.824 890.345,108.513 890.137,108.094C890.057,107.931 890.001,107.762 889.969,107.592ZM902.398,413.271C900.351,416.476 889.028,434.05 876.463,450.165L893.208,462.946C894.948,460.855 907.745,444.906 919.509,423.603L902.398,413.271ZM694.939,378.022C690.063,380.407 668.177,390.811 653.53,394.023L653.53,394.023L666.352,448.89C669.464,448.121 679.666,445.559 693.146,440.52L673.349,387.695L673.954,387.469L693.75,440.293C702.606,436.958 712.833,432.566 723.373,426.926L694.939,378.022ZM996.164,140.236L1000.3,153.884C1000.38,154.135 1000.35,154.406 1000.22,154.636C1000.1,154.865 999.879,155.032 999.627,155.1L924.813,175.217C926.273,182.396 935.673,230.777 931.539,265.913C926.918,305.189 920.966,330.751 909.594,360.11L994.717,395.139L994.718,395.135L1048.28,417.504C1053.82,403.69 1059.51,387.616 1064.63,369.648C1081.12,311.686 1094.74,221.647 1066.37,121.047L996.164,140.236ZM719.736,323.226L691.208,302.986C677.702,318.93 659.548,329.715 639.543,334.024L649.332,367.804C655.592,366.182 693.632,355.241 719.736,323.226ZM638.813,332.198C658.914,327.944 677.127,317.019 690.5,300.814C690.837,300.408 691.44,300.343 691.853,300.676C692.059,300.841 692.182,301.075 692.209,301.321L740.675,335.707C745.001,330.532 772.839,295.157 772.839,242.813C772.839,205.467 755.964,172.939 755.793,172.616C755.672,172.385 755.649,172.116 755.728,171.87C755.807,171.622 755.98,171.417 756.212,171.3L783.936,157.275C781.474,152.623 768.699,129.697 744.746,107.05C720.148,83.786 678.371,56.058 619.054,56.058C535.241,56.058 484.902,111.956 478.896,119.002L521.221,154.715C521.616,155.051 521.681,155.638 521.362,156.047C501.319,181.985 495.084,203.998 493.939,208.597L530.168,218.581C530.676,218.722 530.979,219.244 530.849,219.755C528.967,227.135 528.011,234.779 528.011,242.475C528.011,293.047 569.157,334.189 619.729,334.189C625.719,334.189 631.631,333.611 637.393,332.486C637.514,332.278 637.712,332.115 637.961,332.043C638.264,331.952 638.577,332.02 638.813,332.198ZM476.989,119.931C468.477,127.754 457.833,145.349 457.723,145.529L457.558,145.804L440.083,135.404C439.504,136.085 438.51,136.293 437.693,135.856L434.562,134.179C431.352,139.334 420.64,157.636 413.731,182.769C413.476,183.698 412.585,184.286 411.656,184.182L410.525,188.193L426.441,192.228L421.731,210.4L496.692,230.642L501.494,212.687L492.528,210.216C492.037,210.08 491.734,209.588 491.836,209.09C491.886,208.848 496.995,184.712 519.265,155.598L476.989,119.931ZM238.427,137.749C236.783,144.239 231.612,165.299 228.788,184.017L316.646,196.756C317.688,191.952 322.698,168.922 324.578,160.94C296.331,153.347 265.367,145.008 238.427,137.749ZM914.009,98.449L911.297,99.791C913.906,105.455 924.62,129.331 931.306,153.8L931.402,153.922L934.266,153.139C927.517,128.383 916.65,104.177 914.009,98.449ZM923.883,93.566L914.588,98.163C917.225,103.882 928.123,128.149 934.888,152.969L944.9,150.233C937.905,124.558 926.59,99.423 923.883,93.566ZM910.719,100.076L908.005,101.419C910.283,106.365 918.735,125.199 925.221,146.077L930.275,152.492C923.588,128.613 913.28,105.636 910.719,100.076ZM927.173,91.939L924.461,93.28C927.166,99.129 938.509,124.323 945.522,150.063L948.445,149.264C941.368,123.285 929.902,97.839 927.173,91.939ZM930.465,90.311L927.752,91.653C930.479,97.544 941.972,123.049 949.067,149.094L951.99,148.295C944.829,122.009 933.215,96.251 930.465,90.311ZM933.756,88.684L931.044,90.025C933.791,95.958 945.433,121.774 952.611,148.125L955.534,147.326C948.29,120.734 936.529,94.668 933.756,88.684ZM937.047,87.056L934.335,88.397C937.105,94.375 948.896,120.5 956.156,147.156L959.078,146.358C951.753,119.46 939.841,93.082 937.047,87.056ZM940.338,85.429L937.626,86.77C940.416,92.788 952.357,119.224 959.7,146.188L962.622,145.389C955.214,118.182 943.154,91.496 940.338,85.429ZM943.629,83.801L940.917,85.142C943.728,91.2 955.819,117.947 963.244,145.219L966.167,144.42C958.677,116.908 946.466,89.913 943.629,83.801ZM907.427,101.704L904.714,103.046C906.621,107.186 912.859,121.076 918.593,137.665L924.097,144.65C917.702,124.478 909.648,106.529 907.427,101.704ZM946.92,82.173L944.207,83.515C947.041,89.618 959.282,116.673 966.789,144.25L969.712,143.451C962.138,115.63 949.777,88.323 946.92,82.173ZM950.213,80.545L947.5,81.887C950.353,88.029 962.743,115.396 970.333,143.281L973.256,142.482C965.603,114.357 953.091,86.739 950.213,80.545ZM953.502,78.919L950.792,80.259C953.665,86.442 966.205,114.119 973.878,142.313L976.801,141.513C969.064,113.083 956.402,85.153 953.502,78.919ZM963.377,74.035L954.082,78.632C956.977,84.855 969.669,112.843 977.423,141.344L987.434,138.607C979.45,109.254 966.338,80.391 963.377,74.035ZM966.667,72.408L963.955,73.749C966.914,80.099 980.054,109.019 988.056,138.437L990.979,137.638C982.91,107.975 969.648,78.803 966.667,72.408ZM969.958,70.78L967.246,72.122C970.226,78.513 983.516,107.744 991.601,137.468L994.524,136.669C986.374,106.702 972.961,77.219 969.958,70.78ZM973.249,69.153L970.537,70.494C973.536,76.922 986.978,106.466 995.146,136.5L998.068,135.701C989.835,105.425 976.272,75.631 973.249,69.153ZM904.136,103.332L901.423,104.673C902.898,107.877 906.964,116.917 911.352,128.475L917.366,136.108C911.824,120.351 905.976,107.329 904.136,103.332ZM976.541,67.525L973.828,68.866C976.849,75.337 990.441,105.19 998.69,135.531L1001.61,134.732C993.298,104.149 979.585,74.043 976.541,67.525ZM979.832,65.897L977.119,67.239C980.16,73.749 993.904,103.914 1002.24,134.562L1005.16,133.763C996.759,102.872 982.895,72.453 979.832,65.897ZM983.123,64.27L980.411,65.611C983.472,72.163 997.365,102.639 1005.78,133.593L1008.7,132.794C1000.22,101.596 986.207,70.867 983.123,64.27ZM986.414,62.642L983.701,63.984C986.784,70.577 1000.83,101.363 1009.32,132.624L1012.25,131.826C1003.68,100.32 989.52,69.281 986.414,62.642ZM989.704,61.015L986.992,62.356C990.094,68.987 1004.29,100.088 1012.87,131.655L1015.79,130.857C1007.15,99.048 992.832,67.696 989.704,61.015ZM992.997,59.387L990.282,60.729C993.404,67.398 1007.75,98.81 1016.41,130.687L1019.34,129.888C1010.61,97.768 996.142,66.104 992.997,59.387ZM1006.12,52.895L993.576,59.101C996.717,65.812 1011.21,97.536 1019.96,129.718L1033.38,126.051C1024.27,92.54 1009.25,59.599 1006.12,52.895ZM900.844,104.96L898.133,106.301C899.056,108.307 900.996,112.607 903.385,118.362L910.007,126.768C905.921,116.177 902.236,107.984 900.844,104.96ZM1009.42,51.266L1006.7,52.609C1009.83,59.302 1024.87,92.304 1034,125.881L1036.92,125.081C1027.74,91.274 1012.57,58.028 1009.42,51.266ZM1012.71,49.637L1010,50.98C1013.15,57.731 1028.34,91.037 1037.54,124.911L1040.47,124.112C1031.2,90.006 1015.9,56.456 1012.71,49.637ZM1016.01,48.007L1013.29,49.35C1016.47,56.159 1031.81,89.768 1041.09,123.942L1044.01,123.143C1034.67,88.738 1019.22,54.884 1016.01,48.007ZM1019.3,46.377L1016.59,47.721C1019.79,54.585 1035.27,88.501 1044.63,122.973L1047.56,122.173C1038.14,87.47 1022.54,53.312 1019.3,46.377ZM1022.6,44.748L1019.88,46.091C1023.12,53.017 1038.74,87.235 1048.18,122.004L1051.11,121.204C1041.6,86.202 1025.87,51.739 1022.6,44.748ZM1025.89,43.119L1023.18,44.462C1026.44,51.445 1042.21,85.965 1051.73,121.034L1054.65,120.235C1045.07,84.934 1029.19,50.167 1025.89,43.119ZM1029.19,41.489L1026.47,42.833C1029.76,49.874 1045.68,84.7 1055.27,120.065L1058.2,119.266C1048.54,83.669 1032.51,48.595 1029.19,41.489ZM1032.48,39.859L1029.77,41.203C1033.09,48.302 1049.14,83.433 1058.82,119.096L1061.74,118.297C1052.01,82.399 1035.84,47.023 1032.48,39.859ZM1035.78,38.231L1033.06,39.574C1036.41,46.729 1052.61,82.164 1062.37,118.127L1065.29,117.327C1055.47,81.131 1039.16,45.452 1035.78,38.231ZM114.217,63.753L114.524,63.853L101.481,103.649L152.445,117.386L174.229,53.812L125.423,32.982L114.606,63.609L114.305,63.503L114.217,63.753ZM897.554,106.587L895.073,107.814L901.894,116.47C899.929,111.813 898.359,108.335 897.554,106.587ZM77.246,115.452L95.059,58.055L39.444,38.878C38.399,43.963 35.084,55.425 29.562,73.054C27.265,81.665 24.947,90.888 22.693,100.619L77.246,115.452Z" style="fill:rgb(167,169,172);"/>
        </g>
    </g>
</svg>
