<?xml version="1.0" encoding="UTF-8" standalone="no"?>
<!DOCTYPE svg PUBLIC "-//W3C//DTD SVG 1.1//EN" "http://www.w3.org/Graphics/SVG/1.1/DTD/svg11.dtd">
<svg width="100%" height="100%" viewBox="0 0 2080 1170" version="1.1" xmlns="http://www.w3.org/2000/svg" xmlns:xlink="http://www.w3.org/1999/xlink" xml:space="preserve" xmlns:serif="http://www.serif.com/" style="fill-rule:evenodd;clip-rule:evenodd;stroke-linecap:round;stroke-linejoin:round;stroke-miterlimit:1.5;">
    <g id="wall-debug">
        <path class="wall" d="M1622,907L1506,907L1506,747L1726,747L1726,1063L1622,1063L1622,907ZM1202,911L1182,911L1182,839L1294,839L1294,967L1202,967L1202,911ZM782,839L782,911L766,911L766,967L730,967L730,839L782,839ZM1478,839L1478,943L1514,943L1514,967L1402,967L1402,839L1478,839ZM566,967L466,967L466,873L485.156,853.844C507.634,870.885 535.645,881 566,881L566,967ZM842,911L822,911L822,871L806,871L806,839L886,839L886,967L842,967L842,911ZM610,967L570,967L570,880.941C583.973,880.531 597.412,877.977 610,873.597L610,967ZM934,967L890,967L890,839L934,839L934,967ZM982,967L938,967L938,839L982,839L982,967ZM1298,839L1346,839L1346,967L1298,967L1298,839ZM1350,839L1398,839L1398,967L1350,967L1350,839ZM770,915L786,915L786,839L802,839L802,875L818,875L818,915L838,915L838,967L770,967L770,915ZM1198,967L1126,967L1126,911L1142,911L1142,883L1162,883L1162,839L1178,839L1178,915L1198,915L1198,967ZM462,967L354,967L354,839L394,839L440.086,792.914C448.501,815.959 463.067,836.054 481.792,851.208L462,871L462,967ZM614,907L670,907L670,839L726,839L726,967L614,967L614,907ZM1082,883L1138,883L1138,907L1122,907L1122,967L986,967L986,839L1082,839L1082,883ZM666,903L614,903L614,872.133C633.258,864.732 649.54,853.852 663.338,839L666,839L666,903ZM1158,879L1086,879L1086,839L1158,839L1158,879ZM392,835L354,835L354,743L432.059,743C432.02,744.329 432,745.662 432,747C432,761.465 434.297,775.398 438.546,788.454L392,835ZM1206,755L1090,755L1090,639L1206,639L1206,755ZM1410,755L1302,755L1302,639L1410,639L1410,755ZM882,755L786,755L786,639L882,639L882,755ZM942,755L886,755L886,691L942,691L942,755ZM1298,755L1210,755L1210,639L1298,639L1298,755ZM782,755L699.764,755C699.921,752.353 700,749.686 700,747C700,710.67 685.511,677.697 662,653.55L662,575L762,575L762,639L782,639L782,755ZM1086,755L1030,755L1030,691L1086,691L1086,755ZM1610,643L1726,643L1726,743L1610,743L1610,643ZM1506,643L1606,643L1606,743L1506,743L1506,643ZM432.236,739L366,739L366,699L398,699L398,671L434,671L434,667L458.521,667C443.357,687.332 433.822,712.105 432.236,739ZM942,687L886,687L886,639L942,639L942,687ZM1086,687L1030,687L1030,639L1086,639L1086,687ZM658,649.609C645.394,637.695 630.479,628.199 614,621.867L614,575L658,575L658,649.609ZM374,647L354,647L354,519L390,519L390,567L470,567L470,647L402,647L402,627L374,627L374,647ZM1506,327L1726,327L1726,639L1506,639L1506,327ZM1354,635L1302,635L1302,519L1354,519L1354,635ZM1206,635L1150,635L1150,519L1206,519L1206,635ZM834,635L766,635L766,519L834,519L834,635ZM1146,635L1090,635L1090,519L1146,519L1146,635ZM1298,635L1210,635L1210,519L1298,519L1298,635ZM1358,571L1410,571L1410,635L1358,635L1358,571ZM942,635L838,635L838,519L942,519L942,635ZM1086,635L1030,635L1030,587L1086,587L1086,635ZM610,620.403C596.216,615.607 581.41,613 566,613L566,575L610,575L610,620.403ZM1086,583L1030,583L1030,519L1086,519L1086,583ZM658,571L614,571L614,519L658,519L658,571ZM762,571L662,571L662,519L762,519L762,571ZM610,571L566,571L566,519L610,519L610,571ZM1358,519L1410,519L1410,567L1358,567L1358,519ZM470,563L394,563L394,519L470,519L470,563ZM470,515L354,515L354,415L470,415L470,515ZM1234,463L1182,463L1182,327L1234,327L1234,463ZM1290,463L1238,463L1238,327L1290,327L1290,463ZM1346,463L1294,463L1294,327L1346,327L1346,463ZM1426,463L1350,463L1350,327L1426,327L1426,463ZM614,183L614,219L674,219L674,463L562,463L562,183L614,183ZM698,319L790,319L790,219L854,219L854,167L878,167L878,463L698,463L698,319ZM1154,107L1154,127L1126,127L1126,191L1154,191L1154,463L882,463L882,163L846,163L846,119L998,119L998,107L1154,107ZM438,363L398,363L398,347L366,347L366,319L354,319L354,107L574,107L574,151L614,151L614,179L558,179L558,383L438,383L438,363ZM1346,324L1182,324L1182,107L1346,107L1346,324ZM1506,107L1726,107L1726,323L1506,323L1506,107ZM1426,323L1350,323L1350,107L1402,107L1402,211L1426,211L1426,323ZM698,219L786,219L786,315L698,315L698,219ZM1406,107L1502,107L1502,207L1406,207L1406,107Z" style="fill:none;stroke:black;stroke-width:0.5px;"/>
    </g>
</svg>
