<?xml version="1.0" encoding="UTF-8" standalone="no"?>
<!DOCTYPE svg PUBLIC "-//W3C//DTD SVG 1.1//EN" "http://www.w3.org/Graphics/SVG/1.1/DTD/svg11.dtd">
<svg width="100%" height="100%" viewBox="0 0 7000 7000" version="1.1" xmlns="http://www.w3.org/2000/svg" xmlns:xlink="http://www.w3.org/1999/xlink" xml:space="preserve" xmlns:serif="http://www.serif.com/" style="fill-rule:evenodd;clip-rule:evenodd;stroke-linejoin:round;stroke-miterlimit:1.41421;">
    <g id="tower-0">
        <g id="floor-0">
            <g id="room-0">
                <path id="wall" d="M566.35,777.209C581.049,777.209 592.982,789.142 592.982,803.841C592.982,818.54 581.049,830.474 566.35,830.474C551.651,830.474 539.718,818.54 539.718,803.841C539.718,789.142 551.651,777.209 566.35,777.209ZM638.79,777.209C653.489,777.209 665.422,789.142 665.422,803.841C665.422,818.54 653.489,830.474 638.79,830.474C624.091,830.474 612.158,818.54 612.158,803.841C612.158,789.142 624.091,777.209 638.79,777.209ZM532.261,714.485C546.959,714.485 558.893,726.418 558.893,741.117C558.893,755.816 546.959,767.749 532.261,767.749C517.562,767.749 505.628,755.816 505.628,741.117C505.628,726.418 517.562,714.485 532.261,714.485ZM604.701,714.485C619.399,714.485 631.333,726.418 631.333,741.117C631.333,755.816 619.399,767.749 604.701,767.749C590.002,767.749 578.068,755.816 578.068,741.117C578.068,726.418 590.002,714.485 604.701,714.485ZM566.35,647.669C581.049,647.669 592.982,659.603 592.982,674.302C592.982,689 581.049,700.934 566.35,700.934C551.651,700.934 539.718,689 539.718,674.302C539.718,659.603 551.651,647.669 566.35,647.669ZM638.79,647.669C653.489,647.669 665.422,659.603 665.422,674.302C665.422,689 653.489,700.934 638.79,700.934C624.091,700.934 612.158,689 612.158,674.302C612.158,659.603 624.091,647.669 638.79,647.669ZM532.261,584.945C546.959,584.945 558.893,596.878 558.893,611.577C558.893,626.276 546.959,638.21 532.261,638.21C517.562,638.21 505.628,626.276 505.628,611.577C505.628,596.878 517.562,584.945 532.261,584.945ZM604.701,584.945C619.399,584.945 631.333,596.878 631.333,611.577C631.333,626.276 619.399,638.21 604.701,638.21C590.002,638.21 578.068,626.276 578.068,611.577C578.068,596.878 590.002,584.945 604.701,584.945Z" style="fill:rgb(82,82,82);"/>
            </g>
            <g id="room-1">
                <rect id="wall1" serif:id="wall" x="721.192" y="862.351" width="159.794" height="256.203" style="fill:rgb(82,82,82);"/>
            </g>
            <g id="room-2">
                <circle id="wall2" serif:id="wall" cx="1011.68" cy="1228.95" r="76.692" style="fill:rgb(82,82,82);"/>
            </g>
            <g id="room-3">
                <path id="wall3" serif:id="wall" d="M1230.45,1342.95L1306.44,1398.16L1277.41,1487.49L1183.49,1487.49L1154.46,1398.16L1230.45,1342.95Z" style="fill:rgb(82,82,82);"/>
            </g>
            <g id="room-4">
                <path id="wall4" serif:id="wall" d="M1465.01,1472.99L1503.01,1500.59L1484.01,1526.74L1514.75,1536.72L1500.23,1581.39L1469.5,1571.4L1469.5,1603.72L1422.53,1603.72L1422.53,1571.4L1391.8,1581.39L1377.28,1536.72L1408.02,1526.74L1389.03,1500.59L1427.02,1472.99L1446.02,1499.13L1465.01,1472.99Z" style="fill:rgb(82,82,82);"/>
            </g>
        </g>
    </g>
</svg>
