<?xml version="1.0" encoding="UTF-8" standalone="no"?>
<!DOCTYPE svg PUBLIC "-//W3C//DTD SVG 1.1//EN" "http://www.w3.org/Graphics/SVG/1.1/DTD/svg11.dtd">
<svg width="100%" height="100%" viewBox="0 0 9000 9000" version="1.1" xmlns="http://www.w3.org/2000/svg" xmlns:xlink="http://www.w3.org/1999/xlink" xml:space="preserve" xmlns:serif="http://www.serif.com/" style="fill-rule:evenodd;clip-rule:evenodd;stroke-linecap:round;stroke-linejoin:round;stroke-miterlimit:1.5;">
    <g id="tower-0">
        <g id="floor-99">
            <g id="rooms">
                <g id="room-63">
                    <path id="wall" d="M1936.12,1529.93L1936.12,1213.93L1716.12,1213.93L1716.12,1373.93L1832.12,1373.93L1832.12,1529.93L1936.12,1529.93Z" style="fill:none;stroke:black;stroke-width:0.5px;"/>
                    <path id="door" d="M1823.34,1389.34L1826.56,1392.55L1823.34,1395.77L1820.12,1392.55L1823.34,1389.34Z" style="fill:rgb(235,235,235);stroke:rgb(255,0,135);stroke-width:0.5px;"/>
                </g>
                <g id="room-62">
                    <rect id="wall1" serif:id="wall" x="1820.12" y="1109.93" width="116" height="100" style="fill:none;stroke:black;stroke-opacity:0.3;stroke-width:0.5px;"/>
                </g>
                <g id="room-61">
                    <rect id="wall2" serif:id="wall" x="1716.12" y="793.926" width="220" height="312" style="fill:none;stroke:black;stroke-width:0.5px;"/>
                    <path id="door1" serif:id="door" d="M1705.63,976.552L1708.85,979.77L1705.63,982.987L1702.41,979.77L1705.63,976.552Z" style="fill:rgb(235,235,235);stroke:rgb(255,0,135);stroke-width:0.5px;"/>
                </g>
                <g id="room-60">
                    <rect id="wall3" serif:id="wall" x="1716.12" y="573.926" width="220" height="216" style="fill:none;stroke:black;stroke-width:0.5px;"/>
                    <path id="door2" serif:id="door" d="M1705.63,740.641L1708.85,743.859L1705.63,747.077L1702.41,743.859L1705.63,740.641Z" style="fill:rgb(235,235,235);stroke:rgb(255,0,135);stroke-width:0.5px;"/>
                </g>
                <g id="room-59">
                    <path id="wall4" serif:id="wall" d="M1712.12,573.926L1616.12,573.926L1616.12,673.926L1712.12,673.926L1712.12,573.926" style="fill:none;stroke:black;stroke-width:0.5px;"/>
                    <path id="door3" serif:id="door" d="M1686.91,680.4L1690.13,683.618L1686.91,686.836L1683.69,683.618L1686.91,680.4Z" style="fill:rgb(235,235,235);stroke:rgb(255,0,135);stroke-width:0.5px;"/>
                </g>
                <g id="room-58">
                    <path id="wall5" serif:id="wall" d="M1612.12,573.926L1612.12,677.926L1636.12,677.926L1636.12,789.926L1560.12,789.926L1560.12,573.926L1612.12,573.926Z" style="fill:none;stroke:black;stroke-width:0.5px;"/>
                    <path id="door4" serif:id="door" d="M1647.01,726.055L1650.23,729.273L1647.01,732.491L1643.79,729.273L1647.01,726.055Z" style="fill:rgb(235,235,235);stroke:rgb(255,0,135);stroke-width:0.5px;"/>
                </g>
                <g id="room-57">
                    <path id="wall6" serif:id="wall" d="M1636.12,793.926L1636.12,929.926L1560.12,929.926L1560.12,793.926L1636.12,793.926" style="fill:none;stroke:black;stroke-width:0.5px;"/>
                    <path id="door5" serif:id="door" d="M1599.05,935.068L1602.27,938.286L1599.05,941.504L1595.83,938.286L1599.05,935.068Z" style="fill:rgb(235,235,235);stroke:rgb(255,0,135);stroke-width:0.5px;"/>
                </g>
                <g id="room-56">
                    <path id="wall7" serif:id="wall" d="M1556.12,793.926L1556.12,929.926L1504.12,929.926L1504.12,793.926L1556.12,793.926" style="fill:none;stroke:black;stroke-width:0.5px;"/>
                    <path id="door6" serif:id="door" d="M1530.99,935.068L1534.21,938.286L1530.99,941.504L1527.78,938.286L1530.99,935.068Z" style="fill:rgb(235,235,235);stroke:rgb(255,0,135);stroke-width:0.5px;"/>
                </g>
                <g id="room-55">
                    <path id="wall8" serif:id="wall" d="M1500.12,793.926L1500.12,929.926L1448.12,929.926L1448.12,793.926L1500.12,793.926" style="fill:none;stroke:black;stroke-width:0.5px;"/>
                    <path id="door7" serif:id="door" d="M1474.94,935.068L1478.15,938.286L1474.94,941.504L1471.72,938.286L1474.94,935.068Z" style="fill:rgb(235,235,235);stroke:rgb(255,0,135);stroke-width:0.5px;"/>
                </g>
                <g id="room-54">
                    <path id="wall9" serif:id="wall" d="M1444.12,793.926L1444.12,929.926L1392.12,929.926L1392.12,793.926L1444.12,793.926" style="fill:none;stroke:black;stroke-width:0.5px;"/>
                    <path id="door8" serif:id="door" d="M1418.88,935.068L1422.09,938.286L1418.88,941.504L1415.66,938.286L1418.88,935.068Z" style="fill:rgb(235,235,235);stroke:rgb(255,0,135);stroke-width:0.5px;"/>
                </g>
                <g id="room-53">
                    <path id="wall10" serif:id="wall" d="M1556.12,573.926L1556.12,790.926L1392.12,790.926L1392.12,573.926L1556.12,573.926" style="fill:none;stroke:black;stroke-width:0.5px;"/>
                    <path id="door9" serif:id="door" d="M1382.83,624.153L1386.05,627.371L1382.83,630.589L1379.61,627.371L1382.83,624.153Z" style="fill:rgb(235,235,235);stroke:rgb(255,0,135);stroke-width:0.5px;"/>
                </g>
                <g id="room-52">
                    <path id="wall11" serif:id="wall" d="M1364.12,929.926L1364.12,657.926L1336.12,657.926L1336.12,593.926L1364.12,593.926L1364.12,573.926L1208.12,573.926L1208.12,585.926L1056.12,585.926L1056.12,629.926L1092.12,629.926L1092.12,929.926L1364.12,929.926Z" style="fill:none;stroke:black;stroke-width:0.5px;"/>
                    <path id="door10" serif:id="door" d="M1046.12,604.334L1049.33,607.552L1046.12,610.77L1042.9,607.552L1046.12,604.334Z" style="fill:rgb(235,235,235);stroke:rgb(255,0,135);stroke-width:0.5px;"/>
                    <path id="door11" serif:id="door" d="M1347.65,624.153L1350.87,627.371L1347.65,630.589L1344.43,627.371L1347.65,624.153Z" style="fill:rgb(235,235,235);stroke:rgb(255,0,135);stroke-width:0.5px;"/>
                    <path id="door12" serif:id="door" d="M1197.81,935.068L1201.03,938.286L1197.81,941.504L1194.59,938.286L1197.81,935.068Z" style="fill:rgb(235,235,235);stroke:rgb(255,0,135);stroke-width:0.5px;"/>
                </g>
                <g id="room-51">
                    <path id="wall12" serif:id="wall" d="M1088.12,929.926L1088.12,633.926L1064.12,633.926L1064.12,685.926L1000.12,685.926L1000.12,785.926L908.117,785.926L908.117,929.926L1088.12,929.926Z" style="fill:none;stroke:black;stroke-width:0.5px;"/>
                    <path id="door13" serif:id="door" d="M998.117,935.068L1001.34,938.286L998.117,941.504L994.899,938.286L998.117,935.068Z" style="fill:rgb(235,235,235);stroke:rgb(255,0,135);stroke-width:0.5px;"/>
                </g>
                <g id="room-50">
                    <rect id="wall13" serif:id="wall" x="908.117" y="685.926" width="88" height="96" style="fill:none;stroke:black;stroke-width:0.5px;"/>
                    <path id="door14" serif:id="door" d="M951.728,672.51L954.946,675.728L951.728,678.946L948.51,675.728L951.728,672.51Z" style="fill:rgb(235,235,235);stroke:rgb(255,0,135);stroke-width:0.5px;"/>
                </g>
                <g id="room-49">
                    <path id="wall14" serif:id="wall" d="M884.117,929.926L884.117,685.926L824.117,685.926L824.117,649.926L772.117,649.926L772.117,929.926L884.117,929.926" style="fill:none;stroke:black;stroke-width:0.5px;"/>
                    <path id="door15" serif:id="door" d="M829.242,935.068L832.46,938.286L829.242,941.504L826.024,938.286L829.242,935.068Z" style="fill:rgb(235,235,235);stroke:rgb(255,0,135);stroke-width:0.5px;"/>
                </g>
                <g id="room-48">
                    <path id="wall15" serif:id="wall" d="M824.117,645.926L824.117,617.926L784.117,617.926L784.117,573.926L564.117,573.926L564.117,785.926L576.117,785.926L576.117,813.926L608.117,813.926L608.117,829.926L648.117,829.926L648.117,849.926L768.117,849.926L768.117,645.926L824.117,645.926Z" style="fill:none;stroke:black;stroke-width:0.5px;"/>
                    <path id="door16" serif:id="door" d="M727.517,855.49L730.735,858.708L727.517,861.926L724.299,858.708L727.517,855.49Z" style="fill:rgb(235,235,235);stroke:rgb(255,0,135);stroke-width:0.5px;"/>
                </g>
                <g id="room-47">
                    <path id="wall16" serif:id="wall" d="M564.117,881.926L680.117,881.926L680.117,981.926L564.117,981.926L564.117,881.926" style="fill:none;stroke:black;stroke-width:0.5px;"/>
                    <path id="door17" serif:id="door" d="M689.641,926.708L692.859,929.926L689.641,933.144L686.423,929.926L689.641,926.708Z" style="fill:rgb(235,235,235);stroke:rgb(255,0,135);stroke-width:0.5px;"/>
                </g>
                <g id="room-46">
                    <path id="wall17" serif:id="wall" d="M680.117,985.926L680.117,1029.93L604.117,1029.93L604.117,985.926L680.117,985.926" style="fill:none;stroke:black;stroke-width:0.5px;"/>
                    <path id="door18" serif:id="door" d="M689.641,1004.71L692.859,1007.93L689.641,1011.14L686.423,1007.93L689.641,1004.71Z" style="fill:rgb(235,235,235);stroke:rgb(255,0,135);stroke-width:0.5px;"/>
                </g>
                <g id="room-45">
                    <path id="wall18" serif:id="wall" d="M820.117,985.926L820.117,1037.93L776.117,1037.93L776.117,985.926L820.117,985.926" style="fill:none;stroke:black;stroke-width:0.5px;"/>
                    <path id="door19" serif:id="door" d="M767.821,1009.63L771.039,1012.85L767.821,1016.07L764.603,1012.85L767.821,1009.63Z" style="fill:rgb(235,235,235);stroke:rgb(255,0,135);stroke-width:0.5px;"/>
                    <path id="door20" serif:id="door" d="M796.772,974.695L799.99,977.913L796.772,981.131L793.554,977.913L796.772,974.695Z" style="fill:rgb(235,235,235);stroke:rgb(255,0,135);stroke-width:0.5px;"/>
                </g>
                <g id="room-44">
                    <path id="wall19" serif:id="wall" d="M868.117,985.926L868.117,1037.93L824.117,1037.93L824.117,985.926L868.117,985.926" style="fill:none;stroke:black;stroke-width:0.5px;"/>
                    <path id="door21" serif:id="door" d="M844.971,974.695L848.189,977.913L844.971,981.131L841.753,977.913L844.971,974.695Z" style="fill:rgb(235,235,235);stroke:rgb(255,0,135);stroke-width:0.5px;"/>
                </g>
                <g id="room-43">
                    <path id="wall20" serif:id="wall" d="M972.117,985.926L972.117,1037.93L872.117,1037.93L872.117,985.926L972.117,985.926" style="fill:none;stroke:black;stroke-width:0.5px;"/>
                    <path id="door22" serif:id="door" d="M920.019,974.695L923.237,977.913L920.019,981.131L916.801,977.913L920.019,974.695Z" style="fill:rgb(235,235,235);stroke:rgb(255,0,135);stroke-width:0.5px;"/>
                </g>
                <g id="room-42">
                    <rect id="wall21" serif:id="wall" x="996.117" y="1105.93" width="96" height="116" style="fill:none;stroke:black;stroke-width:0.5px;"/>
                    <path id="door23" serif:id="door" d="M1046.2,1229.36L1049.42,1232.58L1046.2,1235.8L1042.98,1232.58L1046.2,1229.36Z" style="fill:rgb(235,235,235);stroke:rgb(255,0,135);stroke-width:0.5px;"/>
                </g>
                <g id="room-41">
                    <path id="wall22" serif:id="wall" d="M1096.12,1221.93L1096.12,1157.93L1152.12,1157.93L1152.12,1221.93L1096.12,1221.93" style="fill:none;stroke:black;stroke-width:0.5px;"/>
                    <path id="door24" serif:id="door" d="M1160.96,1188L1164.18,1191.22L1160.96,1194.44L1157.74,1191.22L1160.96,1188Z" style="fill:rgb(235,235,235);stroke:rgb(255,0,135);stroke-width:0.5px;"/>
                    <path id="door25" serif:id="door" d="M1124.6,1229.36L1127.82,1232.58L1124.6,1235.8L1121.38,1232.58L1124.6,1229.36Z" style="fill:rgb(235,235,235);stroke:rgb(255,0,135);stroke-width:0.5px;"/>
                </g>
                <g id="room-40">
                    <path id="wall23" serif:id="wall" d="M1240.12,1221.93L1240.12,1157.93L1296.12,1157.93L1296.12,1221.93L1240.12,1221.93" style="fill:none;stroke:black;stroke-width:0.5px;"/>
                    <path id="door26" serif:id="door" d="M1270.27,1229.36L1273.49,1232.58L1270.27,1235.8L1267.06,1232.58L1270.27,1229.36Z" style="fill:rgb(235,235,235);stroke:rgb(255,0,135);stroke-width:0.5px;"/>
                </g>
                <g id="room-39">
                    <path id="wall24" serif:id="wall" d="M1300.12,1221.93L1300.12,1105.93L1416.12,1105.93L1416.12,1221.93L1300.12,1221.93" style="fill:none;stroke:black;stroke-width:0.5px;"/>
                    <path id="door27" serif:id="door" d="M1358.9,1229.36L1362.12,1232.58L1358.9,1235.8L1355.69,1232.58L1358.9,1229.36Z" style="fill:rgb(235,235,235);stroke:rgb(255,0,135);stroke-width:0.5px;"/>
                </g>
                <g id="room-38">
                    <path id="wall25" serif:id="wall" d="M1420.12,1221.93L1420.12,1105.93L1508.12,1105.93L1508.12,1221.93L1420.12,1221.93" style="fill:none;stroke:black;stroke-width:0.5px;"/>
                    <path id="door28" serif:id="door" d="M1464.35,1229.36L1467.57,1232.58L1464.35,1235.8L1461.13,1232.58L1464.35,1229.36Z" style="fill:rgb(235,235,235);stroke:rgb(255,0,135);stroke-width:0.5px;"/>
                </g>
                <g id="room-37">
                    <path id="wall26" serif:id="wall" d="M1512.12,1221.93L1512.12,1105.93L1620.12,1105.93L1620.12,1221.93L1512.12,1221.93" style="fill:none;stroke:black;stroke-width:0.5px;"/>
                    <path id="door29" serif:id="door" d="M1630.27,1159.6L1633.49,1162.82L1630.27,1166.04L1627.05,1162.82L1630.27,1159.6Z" style="fill:rgb(235,235,235);stroke:rgb(255,0,135);stroke-width:0.5px;"/>
                    <path id="door30" serif:id="door" d="M1564.8,1229.36L1568.01,1232.58L1564.8,1235.8L1561.58,1232.58L1564.8,1229.36Z" style="fill:rgb(235,235,235);stroke:rgb(255,0,135);stroke-width:0.5px;"/>
                </g>
                <g id="room-36">
                    <path id="wall27" serif:id="wall" d="M1240.12,1153.93L1240.12,1105.93L1296.12,1105.93L1296.12,1153.93L1240.12,1153.93" style="fill:none;stroke:black;stroke-width:0.5px;"/>
                    <path id="door31" serif:id="door" d="M1231.64,1127.75L1234.86,1130.96L1231.64,1134.18L1228.42,1130.96L1231.64,1127.75Z" style="fill:rgb(235,235,235);stroke:rgb(255,0,135);stroke-width:0.5px;"/>
                </g>
                <g id="room-35">
                    <path id="wall28" serif:id="wall" d="M1240.12,1101.93L1240.12,1053.93L1296.12,1053.93L1296.12,1101.93L1240.12,1101.93" style="fill:none;stroke:black;stroke-width:0.5px;"/>
                    <path id="door32" serif:id="door" d="M1231.64,1073.68L1234.86,1076.9L1231.64,1080.12L1228.42,1076.9L1231.64,1073.68Z" style="fill:rgb(235,235,235);stroke:rgb(255,0,135);stroke-width:0.5px;"/>
                </g>
                <g id="room-34">
                    <path id="wall29" serif:id="wall" d="M1240.12,1049.93L1240.12,985.926L1296.12,985.926L1296.12,1049.93L1240.12,1049.93" style="fill:none;stroke:black;stroke-width:0.5px;"/>
                    <path id="door33" serif:id="door" d="M1273.32,974.695L1276.53,977.913L1273.32,981.131L1270.1,977.913L1273.32,974.695Z" style="fill:rgb(235,235,235);stroke:rgb(255,0,135);stroke-width:0.5px;"/>
                    <path id="door34" serif:id="door" d="M1231.64,1020.92L1234.86,1024.13L1231.64,1027.35L1228.42,1024.13L1231.64,1020.92Z" style="fill:rgb(235,235,235);stroke:rgb(255,0,135);stroke-width:0.5px;"/>
                </g>
                <g id="room-33">
                    <path id="wall30" serif:id="wall" d="M1300.12,1101.93L1300.12,985.926L1356.12,985.926L1356.12,1101.93L1300.12,1101.93" style="fill:none;stroke:black;stroke-width:0.5px;"/>
                    <path id="door35" serif:id="door" d="M1329.15,974.695L1332.37,977.913L1329.15,981.131L1325.93,977.913L1329.15,974.695Z" style="fill:rgb(235,235,235);stroke:rgb(255,0,135);stroke-width:0.5px;"/>
                </g>
                <g id="room-32">
                    <path id="wall31" serif:id="wall" d="M1360.12,1101.93L1360.12,985.926L1416.12,985.926L1416.12,1101.93L1360.12,1101.93" style="fill:none;stroke:black;stroke-width:0.5px;"/>
                    <path id="door36" serif:id="door" d="M1388.91,974.695L1392.13,977.913L1388.91,981.131L1385.7,977.913L1388.91,974.695Z" style="fill:rgb(235,235,235);stroke:rgb(255,0,135);stroke-width:0.5px;"/>
                </g>
                <g id="room-31">
                    <path id="wall32" serif:id="wall" d="M1512.12,1101.93L1512.12,985.926L1564.12,985.926L1564.12,1101.93L1512.12,1101.93" style="fill:none;stroke:black;stroke-width:0.5px;"/>
                    <path id="door37" serif:id="door" d="M1538.48,974.695L1541.7,977.913L1538.48,981.131L1535.26,977.913L1538.48,974.695Z" style="fill:rgb(235,235,235);stroke:rgb(255,0,135);stroke-width:0.5px;"/>
                </g>
                <g id="room-30">
                    <rect id="wall33" serif:id="wall" x="1568.12" y="1037.93" width="52" height="64" style="fill:none;stroke:black;stroke-width:0.5px;"/>
                    <path id="door38" serif:id="door" d="M1628.75,1067.75L1631.97,1070.97L1628.75,1074.19L1625.54,1070.97L1628.75,1067.75Z" style="fill:rgb(235,235,235);stroke:rgb(255,0,135);stroke-width:0.5px;"/>
                </g>
                <g id="room-29">
                    <rect id="wall34" serif:id="wall" x="1568.12" y="985.926" width="52" height="48" style="fill:none;stroke:black;stroke-width:0.5px;"/>
                    <path id="door39" serif:id="door" d="M1593.99,974.695L1597.2,977.913L1593.99,981.131L1590.77,977.913L1593.99,974.695Z" style="fill:rgb(235,235,235);stroke:rgb(255,0,135);stroke-width:0.5px;"/>
                    <path id="door40" serif:id="door" d="M1628.75,1006.89L1631.97,1010.11L1628.75,1013.33L1625.54,1010.11L1628.75,1006.89Z" style="fill:rgb(235,235,235);stroke:rgb(255,0,135);stroke-width:0.5px;"/>
                </g>
                <g id="room-28">
                    <path id="wall35" serif:id="wall" d="M1420.12,1101.93L1420.12,985.926L1508.12,985.926L1508.12,1101.93L1420.12,1101.93" style="fill:none;stroke:black;stroke-width:0.5px;"/>
                    <path id="door41" serif:id="door" d="M1462.59,974.695L1465.81,977.913L1462.59,981.131L1459.37,977.913L1462.59,974.695Z" style="fill:rgb(235,235,235);stroke:rgb(255,0,135);stroke-width:0.5px;"/>
                </g>
                <g id="room-27">
                    <path id="wall36" serif:id="wall" d="M1096.12,1153.93L1096.12,1105.93L1152.12,1105.93L1152.12,1153.93L1096.12,1153.93" style="fill:none;stroke:black;stroke-width:0.5px;"/>
                    <path id="door42" serif:id="door" d="M1160.5,1127.97L1163.71,1131.19L1160.5,1134.41L1157.28,1131.19L1160.5,1127.97Z" style="fill:rgb(235,235,235);stroke:rgb(255,0,135);stroke-width:0.5px;"/>
                </g>
                <g id="room-26">
                    <path id="wall37" serif:id="wall" d="M976.117,1101.93L976.117,985.926L1044.12,985.926L1044.12,1101.93L976.117,1101.93" style="fill:none;stroke:black;stroke-width:0.5px;"/>
                    <path id="door43" serif:id="door" d="M1008.77,974.695L1011.99,977.913L1008.77,981.131L1005.56,977.913L1008.77,974.695Z" style="fill:rgb(235,235,235);stroke:rgb(255,0,135);stroke-width:0.5px;"/>
                </g>
                <g id="room-25">
                    <path id="wall38" serif:id="wall" d="M1048.12,1101.93L1048.12,985.926L1152.12,985.926L1152.12,1101.93L1048.12,1101.93" style="fill:none;stroke:black;stroke-width:0.5px;"/>
                    <path id="door44" serif:id="door" d="M1070.07,974.695L1073.29,977.913L1070.07,981.131L1066.85,977.913L1070.07,974.695Z" style="fill:rgb(235,235,235);stroke:rgb(255,0,135);stroke-width:0.5px;"/>
                    <path id="door45" serif:id="door" d="M1161.21,1043.93L1164.43,1047.14L1161.21,1050.36L1157.99,1047.14L1161.21,1043.93Z" style="fill:rgb(235,235,235);stroke:rgb(255,0,135);stroke-width:0.5px;"/>
                </g>
                <g id="room-24">
                    <path id="wall39" serif:id="wall" d="M564.117,985.926L600.117,985.926L600.117,1033.93L680.117,1033.93L680.117,1113.93L612.117,1113.93L612.117,1093.93L584.117,1093.93L584.117,1113.93L564.117,1113.93L564.117,985.926Z" style="fill:none;stroke:black;stroke-width:0.5px;"/>
                    <path id="door46" serif:id="door" d="M689.905,1070.9L693.123,1074.12L689.905,1077.34L686.687,1074.12L689.905,1070.9Z" style="fill:rgb(235,235,235);stroke:rgb(255,0,135);stroke-width:0.5px;"/>
                </g>
                <g id="room-23">
                    <rect id="wall40" serif:id="wall" x="1716.12" y="1109.93" width="100" height="100" style="fill:none;stroke:black;stroke-width:0.5px;"/>
                    <path id="door47" serif:id="door" d="M1703.93,1156.71L1707.15,1159.93L1703.93,1163.14L1700.71,1159.93L1703.93,1156.71Z" style="fill:rgb(235,235,235);stroke:rgb(255,0,135);stroke-width:0.5px;"/>
                </g>
                <g id="room-22">
                    <path id="wall41" serif:id="wall" d="M1724.12,1433.93L1724.12,1409.93L1688.12,1409.93L1688.12,1305.93L1612.12,1305.93L1612.12,1433.93L1724.12,1433.93Z" style="fill:none;stroke:black;stroke-width:0.5px;"/>
                    <path id="door48" serif:id="door" d="M1649.56,1294.81L1652.78,1298.03L1649.56,1301.25L1646.34,1298.03L1649.56,1294.81Z" style="fill:rgb(235,235,235);stroke:rgb(255,0,135);stroke-width:0.5px;"/>
                </g>
                <g id="room-21">
                    <rect id="wall42" serif:id="wall" x="1560.12" y="1305.93" width="48" height="128" style="fill:none;stroke:black;stroke-width:0.5px;"/>
                    <path id="door49" serif:id="door" d="M1583.63,1294.81L1586.85,1298.03L1583.63,1301.25L1580.41,1298.03L1583.63,1294.81Z" style="fill:rgb(235,235,235);stroke:rgb(255,0,135);stroke-width:0.5px;"/>
                </g>
                <g id="room-20">
                    <rect id="wall43" serif:id="wall" x="1508.12" y="1305.93" width="48" height="128" style="fill:none;stroke:black;stroke-width:0.5px;"/>
                    <path id="door50" serif:id="door" d="M1528.76,1294.81L1531.98,1298.03L1528.76,1301.25L1525.54,1298.03L1528.76,1294.81Z" style="fill:rgb(235,235,235);stroke:rgb(255,0,135);stroke-width:0.5px;"/>
                </g>
                <g id="room-19">
                    <path id="wall44" serif:id="wall" d="M1504.12,1433.93L1504.12,1305.93L1392.12,1305.93L1392.12,1377.93L1412.12,1377.93L1412.12,1433.93L1504.12,1433.93Z" style="fill:none;stroke:black;stroke-width:0.5px;"/>
                    <path id="door51" serif:id="door" d="M1455.45,1294.81L1458.67,1298.03L1455.45,1301.25L1452.23,1298.03L1455.45,1294.81Z" style="fill:rgb(235,235,235);stroke:rgb(255,0,135);stroke-width:0.5px;"/>
                </g>
                <g id="room-18">
                    <path id="wall45" serif:id="wall" d="M1388.12,1305.93L1388.12,1381.93L1408.12,1381.93L1408.12,1433.93L1336.12,1433.93L1336.12,1377.93L1352.12,1377.93L1352.12,1349.93L1372.12,1349.93L1372.12,1305.93L1388.12,1305.93Z" style="fill:none;stroke:black;stroke-width:0.5px;"/>
                    <path id="door52" serif:id="door" d="M1379.57,1294.81L1382.78,1298.03L1379.57,1301.25L1376.35,1298.03L1379.57,1294.81Z" style="fill:rgb(235,235,235);stroke:rgb(255,0,135);stroke-width:0.5px;"/>
                </g>
                <g id="room-17">
                    <path id="wall46" serif:id="wall" d="M1368.12,1305.93L1368.12,1345.93L1296.12,1345.93L1296.12,1305.93L1368.12,1305.93" style="fill:none;stroke:black;stroke-width:0.5px;"/>
                    <path id="door53" serif:id="door" d="M1331.76,1294.81L1334.98,1298.03L1331.76,1301.25L1328.54,1298.03L1331.76,1294.81Z" style="fill:rgb(235,235,235);stroke:rgb(255,0,135);stroke-width:0.5px;"/>
                </g>
                <g id="room-16">
                    <path id="wall47" serif:id="wall" d="M1348.12,1349.93L1348.12,1373.93L1332.12,1373.93L1332.12,1433.93L1196.12,1433.93L1196.12,1305.93L1292.12,1305.93L1292.12,1349.93L1348.12,1349.93Z" style="fill:none;stroke:black;stroke-width:0.5px;"/>
                    <path id="door54" serif:id="door" d="M1243.21,1294.81L1246.42,1298.03L1243.21,1301.25L1239.99,1298.03L1243.21,1294.81Z" style="fill:rgb(235,235,235);stroke:rgb(255,0,135);stroke-width:0.5px;"/>
                </g>
                <g id="room-15">
                    <rect id="wall48" serif:id="wall" x="1148.12" y="1305.93" width="44" height="128" style="fill:none;stroke:black;stroke-width:0.5px;"/>
                    <path id="door55" serif:id="door" d="M1169.25,1294.81L1172.46,1298.03L1169.25,1301.25L1166.03,1298.03L1169.25,1294.81Z" style="fill:rgb(235,235,235);stroke:rgb(255,0,135);stroke-width:0.5px;"/>
                </g>
                <g id="room-14">
                    <rect id="wall49" serif:id="wall" x="1100.12" y="1305.93" width="44" height="128" style="fill:none;stroke:black;stroke-width:0.5px;"/>
                    <path id="door56" serif:id="door" d="M1124.49,1294.81L1127.71,1298.03L1124.49,1301.25L1121.27,1298.03L1124.49,1294.81Z" style="fill:rgb(235,235,235);stroke:rgb(255,0,135);stroke-width:0.5px;"/>
                </g>
                <g id="room-13">
                    <path id="wall50" serif:id="wall" d="M1096.12,1433.93L1096.12,1305.93L1016.12,1305.93L1016.12,1337.93L1032.12,1337.93L1032.12,1377.93L1052.12,1377.93L1052.12,1433.93L1096.12,1433.93Z" style="fill:none;stroke:black;stroke-width:0.5px;"/>
                    <path id="door57" serif:id="door" d="M1072.67,1294.81L1075.88,1298.03L1072.67,1301.25L1069.45,1298.03L1072.67,1294.81Z" style="fill:rgb(235,235,235);stroke:rgb(255,0,135);stroke-width:0.5px;"/>
                </g>
                <g id="room-12">
                    <path id="wall51" serif:id="wall" d="M1048.12,1433.93L1048.12,1381.93L1028.12,1381.93L1028.12,1341.93L1012.12,1341.93L1012.12,1305.93L996.117,1305.93L996.117,1381.93L980.117,1381.93L980.117,1433.93L1048.12,1433.93Z" style="fill:none;stroke:black;stroke-width:0.5px;"/>
                    <path id="door58" serif:id="door" d="M1003.52,1294.81L1006.74,1298.03L1003.52,1301.25L1000.31,1298.03L1003.52,1294.81Z" style="fill:rgb(235,235,235);stroke:rgb(255,0,135);stroke-width:0.5px;"/>
                </g>
                <g id="room-11">
                    <path id="wall52" serif:id="wall" d="M976.117,1433.93L976.117,1377.93L992.117,1377.93L992.117,1305.93L940.117,1305.93L940.117,1433.93L976.117,1433.93Z" style="fill:none;stroke:black;stroke-width:0.5px;"/>
                    <path id="door59" serif:id="door" d="M966.625,1294.81L969.843,1298.03L966.625,1301.25L963.407,1298.03L966.625,1294.81Z" style="fill:rgb(235,235,235);stroke:rgb(255,0,135);stroke-width:0.5px;"/>
                </g>
                <g id="room-10">
                    <path id="wall53" serif:id="wall" d="M936.117,1433.93L936.117,1305.93L880.117,1305.93L880.117,1373.93L824.117,1373.93L824.117,1433.93L936.117,1433.93Z" style="fill:none;stroke:black;stroke-width:0.5px;"/>
                    <path id="door60" serif:id="door" d="M908.391,1294.81L911.609,1298.03L908.391,1301.25L905.173,1298.03L908.391,1294.81Z" style="fill:rgb(235,235,235);stroke:rgb(255,0,135);stroke-width:0.5px;"/>
                </g>
                <g id="room-9">
                    <path id="wall54" serif:id="wall" d="M668.638,1133.93C653.474,1154.26 643.939,1179.03 642.353,1205.93L576.117,1205.93L576.117,1165.93L608.117,1165.93L608.117,1137.93L644.117,1137.93L644.117,1133.93L668.638,1133.93Z" style="fill:none;stroke:black;stroke-width:0.5px;"/>
                    <path id="door61" serif:id="door" d="M657.677,1168.97L660.895,1172.19L657.677,1175.41L654.459,1172.19L657.677,1168.97Z" style="fill:rgb(235,235,235);stroke:rgb(255,0,135);stroke-width:0.5px;"/>
                </g>
                <g id="room-8">
                    <path id="wall55" serif:id="wall" d="M642.176,1209.93C642.137,1211.26 642.117,1212.59 642.117,1213.93C642.117,1228.39 644.414,1242.32 648.663,1255.38L602.117,1301.93L564.117,1301.93L564.117,1209.93L642.176,1209.93Z" style="fill:none;stroke:black;stroke-width:0.5px;"/>
                    <path id="door62" serif:id="door" d="M650.273,1229.37L653.491,1232.58L650.273,1235.8L647.055,1232.58L650.273,1229.37Z" style="fill:rgb(235,235,235);stroke:rgb(255,0,135);stroke-width:0.5px;"/>
                </g>
                <g id="room-7">
                    <path id="wall56" serif:id="wall" d="M650.203,1259.84C658.618,1282.88 673.184,1302.98 691.909,1318.13L672.117,1337.93L672.117,1433.93L564.117,1433.93L564.117,1305.93L604.117,1305.93L650.203,1259.84Z" style="fill:none;stroke:black;stroke-width:0.5px;"/>
                    <path id="door63" serif:id="door" d="M673.131,1286.53L676.349,1289.75L673.131,1292.97L669.913,1289.75L673.131,1286.53Z" style="fill:rgb(235,235,235);stroke:rgb(255,0,135);stroke-width:0.5px;"/>
                </g>
                <g id="room-6">
                    <path id="wall57" serif:id="wall" d="M695.273,1320.77C717.751,1337.81 745.762,1347.93 776.117,1347.93L776.117,1433.93L676.117,1433.93L676.117,1339.93L695.273,1320.77Z" style="fill:none;stroke:black;stroke-width:0.5px;"/>
                    <path id="door64" serif:id="door" d="M734.914,1331.14L738.132,1334.35L734.914,1337.57L731.696,1334.35L734.914,1331.14Z" style="fill:rgb(235,235,235);stroke:rgb(255,0,135);stroke-width:0.5px;"/>
                </g>
                <g id="room-5">
                    <path id="wall58" serif:id="wall" d="M820.117,1340.52L820.117,1433.93L780.117,1433.93L780.117,1347.87C794.09,1347.46 807.529,1344.9 820.117,1340.52Z" style="fill:none;stroke:black;stroke-width:0.5px;"/>
                    <path id="door65" serif:id="door" d="M799.315,1335.58L802.533,1338.8L799.315,1342.02L796.097,1338.8L799.315,1335.58Z" style="fill:rgb(235,235,235);stroke:rgb(255,0,135);stroke-width:0.5px;"/>
                </g>
                <g id="room-4">
                    <path id="wall59" serif:id="wall" d="M873.455,1305.93L876.117,1305.93L876.117,1369.93L824.117,1369.93L824.117,1339.06C843.375,1331.66 859.657,1320.78 873.455,1305.93Z" style="fill:none;stroke:black;stroke-width:0.5px;"/>
                    <path id="door66" serif:id="door" d="M846.117,1316.94L849.335,1320.16L846.117,1323.38L842.899,1320.16L846.117,1316.94Z" style="fill:rgb(235,235,235);stroke:rgb(255,0,135);stroke-width:0.5px;"/>
                </g>
                <g id="room-3">
                    <path id="wall60" serif:id="wall" d="M972.117,1105.93L992.117,1105.93L992.117,1221.93L909.881,1221.93C910.038,1219.28 910.117,1216.61 910.117,1213.93C910.117,1177.6 895.628,1144.62 872.117,1120.48L872.117,1041.93L972.117,1041.93L972.117,1105.93Z" style="fill:none;stroke:black;stroke-width:0.5px;"/>
                    <path id="door67" serif:id="door" d="M952.026,1228.56L955.244,1231.77L952.026,1234.99L948.809,1231.77L952.026,1228.56Z" style="fill:rgb(235,235,235);stroke:rgb(255,0,135);stroke-width:0.5px;"/>
                    <path id="door68" serif:id="door" d="M895.24,1166.36L898.458,1169.58L895.24,1172.8L892.022,1169.58L895.24,1166.36Z" style="fill:rgb(235,235,235);stroke:rgb(255,0,135);stroke-width:0.5px;"/>
                </g>
                <g id="room-2">
                    <path id="wall61" serif:id="wall" d="M868.117,1116.54C855.511,1104.62 840.596,1095.13 824.117,1088.79L824.117,1041.93L868.117,1041.93L868.117,1116.54Z" style="fill:none;stroke:black;stroke-width:0.5px;"/>
                    <path id="door69" serif:id="door" d="M843.676,1101.88L846.894,1105.09L843.676,1108.31L840.458,1105.09L843.676,1101.88Z" style="fill:rgb(235,235,235);stroke:rgb(255,0,135);stroke-width:0.5px;"/>
                </g>
                <g id="room-1">
                    <path id="wall62" serif:id="wall" d="M820.117,1087.33C806.333,1082.53 791.527,1079.93 776.117,1079.93L776.117,1041.93L820.117,1041.93L820.117,1087.33Z" style="fill:none;stroke:black;stroke-width:0.5px;"/>
                    <path id="door70" serif:id="door" d="M798.117,1084.11L801.335,1087.33L798.117,1090.55L794.899,1087.33L798.117,1084.11Z" style="fill:rgb(235,235,235);stroke:rgb(255,0,135);stroke-width:0.5px;"/>
                </g>
            </g>
        </g>
    </g>
</svg>
