<?xml version="1.0" encoding="UTF-8" standalone="no"?>
<!DOCTYPE svg PUBLIC "-//W3C//DTD SVG 1.1//EN" "http://www.w3.org/Graphics/SVG/1.1/DTD/svg11.dtd">
<svg width="100%" height="100%" viewBox="0 0 2080 1170" version="1.1" xmlns="http://www.w3.org/2000/svg" xmlns:xlink="http://www.w3.org/1999/xlink" xml:space="preserve" xmlns:serif="http://www.serif.com/" style="fill-rule:evenodd;clip-rule:evenodd;stroke-linecap:round;stroke-linejoin:round;stroke-miterlimit:1.5;">
    <g id="tower">
        <g id="floor-99">
            <g id="rooms">
                <g id="room-63">
                    <path id="wall" d="M1726,1063L1726,747L1506,747L1506,907L1622,907L1622,1063L1726,1063Z" style="fill:none;stroke:black;stroke-width:0.5px;"/>
                    <path id="door" d="M1613.22,922.409L1616.44,925.627L1613.22,928.845L1610,925.627L1613.22,922.409Z" style="fill:rgb(235,235,235);stroke:rgb(255,0,135);stroke-width:0.5px;"/>
                </g>
                <g id="room-62">
                    <rect id="wall1" serif:id="wall" x="1610" y="643" width="116" height="100" style="fill:none;stroke:black;stroke-opacity:0.3;stroke-width:0.5px;"/>
                </g>
                <g id="room-61">
                    <rect id="wall2" serif:id="wall" x="1506" y="327" width="220" height="312" style="fill:none;stroke:black;stroke-width:0.5px;"/>
                    <path id="door1" serif:id="door" d="M1495.51,509.626L1498.73,512.844L1495.51,516.061L1492.29,512.844L1495.51,509.626Z" style="fill:rgb(235,235,235);stroke:rgb(255,0,135);stroke-width:0.5px;"/>
                </g>
                <g id="room-60">
                    <rect id="wall3" serif:id="wall" x="1506" y="107" width="220" height="216" style="fill:none;stroke:black;stroke-width:0.5px;"/>
                    <path id="door2" serif:id="door" d="M1495.51,273.715L1498.73,276.933L1495.51,280.151L1492.29,276.933L1495.51,273.715Z" style="fill:rgb(235,235,235);stroke:rgb(255,0,135);stroke-width:0.5px;"/>
                </g>
                <g id="room-59">
                    <path id="wall4" serif:id="wall" d="M1502,107L1406,107L1406,207L1502,207L1502,107" style="fill:none;stroke:black;stroke-width:0.5px;"/>
                    <path id="door3" serif:id="door" d="M1476.79,213.474L1480.01,216.692L1476.79,219.91L1473.57,216.692L1476.79,213.474Z" style="fill:rgb(235,235,235);stroke:rgb(255,0,135);stroke-width:0.5px;"/>
                </g>
                <g id="room-58">
                    <path id="wall5" serif:id="wall" d="M1402,107L1402,211L1426,211L1426,323L1350,323L1350,107L1402,107Z" style="fill:none;stroke:black;stroke-width:0.5px;"/>
                    <path id="door4" serif:id="door" d="M1436.89,259.129L1440.11,262.347L1436.89,265.565L1433.67,262.347L1436.89,259.129Z" style="fill:rgb(235,235,235);stroke:rgb(255,0,135);stroke-width:0.5px;"/>
                </g>
                <g id="room-57">
                    <path id="wall6" serif:id="wall" d="M1426,327L1426,463L1350,463L1350,327L1426,327" style="fill:none;stroke:black;stroke-width:0.5px;"/>
                    <path id="door5" serif:id="door" d="M1388.93,468.142L1392.15,471.36L1388.93,474.578L1385.71,471.36L1388.93,468.142Z" style="fill:rgb(235,235,235);stroke:rgb(255,0,135);stroke-width:0.5px;"/>
                </g>
                <g id="room-56">
                    <path id="wall7" serif:id="wall" d="M1346,327L1346,463L1294,463L1294,327L1346,327" style="fill:none;stroke:black;stroke-width:0.5px;"/>
                    <path id="door6" serif:id="door" d="M1320.87,468.142L1324.09,471.36L1320.87,474.578L1317.66,471.36L1320.87,468.142Z" style="fill:rgb(235,235,235);stroke:rgb(255,0,135);stroke-width:0.5px;"/>
                </g>
                <g id="room-55">
                    <path id="wall8" serif:id="wall" d="M1290,327L1290,463L1238,463L1238,327L1290,327" style="fill:none;stroke:black;stroke-width:0.5px;"/>
                    <path id="door7" serif:id="door" d="M1264.82,468.142L1268.03,471.36L1264.82,474.578L1261.6,471.36L1264.82,468.142Z" style="fill:rgb(235,235,235);stroke:rgb(255,0,135);stroke-width:0.5px;"/>
                </g>
                <g id="room-54">
                    <path id="wall9" serif:id="wall" d="M1234,327L1234,463L1182,463L1182,327L1234,327" style="fill:none;stroke:black;stroke-width:0.5px;"/>
                    <path id="door8" serif:id="door" d="M1208.76,468.142L1211.97,471.36L1208.76,474.578L1205.54,471.36L1208.76,468.142Z" style="fill:rgb(235,235,235);stroke:rgb(255,0,135);stroke-width:0.5px;"/>
                </g>
                <g id="room-53">
                    <path id="wall10" serif:id="wall" d="M1346,107L1346,324L1182,324L1182,107L1346,107" style="fill:none;stroke:black;stroke-width:0.5px;"/>
                    <path id="door9" serif:id="door" d="M1172.71,157.227L1175.93,160.445L1172.71,163.663L1169.49,160.445L1172.71,157.227Z" style="fill:rgb(235,235,235);stroke:rgb(255,0,135);stroke-width:0.5px;"/>
                </g>
                <g id="room-52">
                    <path id="wall11" serif:id="wall" d="M1154,463L1154,191L1126,191L1126,127L1154,127L1154,107L998,107L998,119L846,119L846,163L882,163L882,463L1154,463Z" style="fill:none;stroke:black;stroke-width:0.5px;"/>
                    <path id="door10" serif:id="door" d="M835.999,137.408L839.217,140.626L835.999,143.844L832.781,140.626L835.999,137.408Z" style="fill:rgb(235,235,235);stroke:rgb(255,0,135);stroke-width:0.5px;"/>
                    <path id="door11" serif:id="door" d="M1137.53,157.227L1140.75,160.445L1137.53,163.663L1134.31,160.445L1137.53,157.227Z" style="fill:rgb(235,235,235);stroke:rgb(255,0,135);stroke-width:0.5px;"/>
                    <path id="door12" serif:id="door" d="M987.695,468.142L990.913,471.36L987.695,474.578L984.477,471.36L987.695,468.142Z" style="fill:rgb(235,235,235);stroke:rgb(255,0,135);stroke-width:0.5px;"/>
                </g>
                <g id="room-51">
                    <path id="wall12" serif:id="wall" d="M878,463L878,167L854,167L854,219L790,219L790,319L698,319L698,463L878,463Z" style="fill:none;stroke:black;stroke-width:0.5px;"/>
                    <path id="door13" serif:id="door" d="M788,468.142L791.218,471.36L788,474.578L784.782,471.36L788,468.142Z" style="fill:rgb(235,235,235);stroke:rgb(255,0,135);stroke-width:0.5px;"/>
                </g>
                <g id="room-50">
                    <rect id="wall13" serif:id="wall" x="698" y="219" width="88" height="96" style="fill:none;stroke:black;stroke-width:0.5px;"/>
                    <path id="door14" serif:id="door" d="M741.611,205.584L744.829,208.802L741.611,212.02L738.393,208.802L741.611,205.584Z" style="fill:rgb(235,235,235);stroke:rgb(255,0,135);stroke-width:0.5px;"/>
                </g>
                <g id="room-49">
                    <path id="wall14" serif:id="wall" d="M674,463L674,219L614,219L614,183L562,183L562,463L674,463" style="fill:none;stroke:black;stroke-width:0.5px;"/>
                    <path id="door15" serif:id="door" d="M619.125,468.142L622.343,471.36L619.125,474.578L615.907,471.36L619.125,468.142Z" style="fill:rgb(235,235,235);stroke:rgb(255,0,135);stroke-width:0.5px;"/>
                </g>
                <g id="room-48">
                    <path id="wall15" serif:id="wall" d="M614,179L614,151L574,151L574,107L354,107L354,319L366,319L366,347L398,347L398,363L438,363L438,383L558,383L558,179L614,179Z" style="fill:none;stroke:black;stroke-width:0.5px;"/>
                    <path id="door16" serif:id="door" d="M517.4,388.564L520.618,391.782L517.4,395L514.182,391.782L517.4,388.564Z" style="fill:rgb(235,235,235);stroke:rgb(255,0,135);stroke-width:0.5px;"/>
                </g>
                <g id="room-47">
                    <path id="wall16" serif:id="wall" d="M354,415L470,415L470,515L354,515L354,415" style="fill:none;stroke:black;stroke-width:0.5px;"/>
                    <path id="door17" serif:id="door" d="M479.524,459.782L482.742,463L479.524,466.218L476.306,463L479.524,459.782Z" style="fill:rgb(235,235,235);stroke:rgb(255,0,135);stroke-width:0.5px;"/>
                </g>
                <g id="room-46">
                    <path id="wall17" serif:id="wall" d="M470,519L470,563L394,563L394,519L470,519" style="fill:none;stroke:black;stroke-width:0.5px;"/>
                    <path id="door18" serif:id="door" d="M479.524,537.782L482.742,541L479.524,544.218L476.306,541L479.524,537.782Z" style="fill:rgb(235,235,235);stroke:rgb(255,0,135);stroke-width:0.5px;"/>
                </g>
                <g id="room-45">
                    <path id="wall18" serif:id="wall" d="M610,519L610,571L566,571L566,519L610,519" style="fill:none;stroke:black;stroke-width:0.5px;"/>
                    <path id="door19" serif:id="door" d="M557.704,542.705L560.922,545.923L557.704,549.141L554.486,545.923L557.704,542.705Z" style="fill:rgb(235,235,235);stroke:rgb(255,0,135);stroke-width:0.5px;"/>
                    <path id="door20" serif:id="door" d="M586.655,507.769L589.873,510.987L586.655,514.205L583.437,510.987L586.655,507.769Z" style="fill:rgb(235,235,235);stroke:rgb(255,0,135);stroke-width:0.5px;"/>
                </g>
                <g id="room-44">
                    <path id="wall19" serif:id="wall" d="M658,519L658,571L614,571L614,519L658,519" style="fill:none;stroke:black;stroke-width:0.5px;"/>
                    <path id="door21" serif:id="door" d="M634.854,507.769L638.072,510.987L634.854,514.205L631.636,510.987L634.854,507.769Z" style="fill:rgb(235,235,235);stroke:rgb(255,0,135);stroke-width:0.5px;"/>
                </g>
                <g id="room-43">
                    <path id="wall20" serif:id="wall" d="M762,519L762,571L662,571L662,519L762,519" style="fill:none;stroke:black;stroke-width:0.5px;"/>
                    <path id="door22" serif:id="door" d="M709.902,507.769L713.12,510.987L709.902,514.205L706.684,510.987L709.902,507.769Z" style="fill:rgb(235,235,235);stroke:rgb(255,0,135);stroke-width:0.5px;"/>
                </g>
                <g id="room-42">
                    <rect id="wall21" serif:id="wall" x="786" y="639" width="96" height="116" style="fill:none;stroke:black;stroke-width:0.5px;"/>
                    <path id="door23" serif:id="door" d="M836.082,762.436L839.3,765.654L836.082,768.872L832.864,765.654L836.082,762.436Z" style="fill:rgb(235,235,235);stroke:rgb(255,0,135);stroke-width:0.5px;"/>
                </g>
                <g id="room-41">
                    <path id="wall22" serif:id="wall" d="M886,755L886,691L942,691L942,755L886,755" style="fill:none;stroke:black;stroke-width:0.5px;"/>
                    <path id="door24" serif:id="door" d="M950.845,721.076L954.063,724.294L950.845,727.512L947.627,724.294L950.845,721.076Z" style="fill:rgb(235,235,235);stroke:rgb(255,0,135);stroke-width:0.5px;"/>
                    <path id="door25" serif:id="door" d="M914.485,762.436L917.703,765.654L914.485,768.872L911.267,765.654L914.485,762.436Z" style="fill:rgb(235,235,235);stroke:rgb(255,0,135);stroke-width:0.5px;"/>
                </g>
                <g id="room-40">
                    <path id="wall23" serif:id="wall" d="M1030,755L1030,691L1086,691L1086,755L1030,755" style="fill:none;stroke:black;stroke-width:0.5px;"/>
                    <path id="door26" serif:id="door" d="M1060.15,762.436L1063.37,765.654L1060.15,768.872L1056.94,765.654L1060.15,762.436Z" style="fill:rgb(235,235,235);stroke:rgb(255,0,135);stroke-width:0.5px;"/>
                </g>
                <g id="room-39">
                    <path id="wall24" serif:id="wall" d="M1090,755L1090,639L1206,639L1206,755L1090,755" style="fill:none;stroke:black;stroke-width:0.5px;"/>
                    <path id="door27" serif:id="door" d="M1148.78,762.436L1152,765.654L1148.78,768.872L1145.57,765.654L1148.78,762.436Z" style="fill:rgb(235,235,235);stroke:rgb(255,0,135);stroke-width:0.5px;"/>
                </g>
                <g id="room-38">
                    <path id="wall25" serif:id="wall" d="M1210,755L1210,639L1298,639L1298,755L1210,755" style="fill:none;stroke:black;stroke-width:0.5px;"/>
                    <path id="door28" serif:id="door" d="M1254.23,762.436L1257.45,765.654L1254.23,768.872L1251.01,765.654L1254.23,762.436Z" style="fill:rgb(235,235,235);stroke:rgb(255,0,135);stroke-width:0.5px;"/>
                </g>
                <g id="room-37">
                    <path id="wall26" serif:id="wall" d="M1302,755L1302,639L1410,639L1410,755L1302,755" style="fill:none;stroke:black;stroke-width:0.5px;"/>
                    <path id="door29" serif:id="door" d="M1420.15,692.677L1423.37,695.895L1420.15,699.113L1416.93,695.895L1420.15,692.677Z" style="fill:rgb(235,235,235);stroke:rgb(255,0,135);stroke-width:0.5px;"/>
                    <path id="door30" serif:id="door" d="M1354.68,762.436L1357.89,765.654L1354.68,768.872L1351.46,765.654L1354.68,762.436Z" style="fill:rgb(235,235,235);stroke:rgb(255,0,135);stroke-width:0.5px;"/>
                </g>
                <g id="room-36">
                    <path id="wall27" serif:id="wall" d="M1030,687L1030,639L1086,639L1086,687L1030,687" style="fill:none;stroke:black;stroke-width:0.5px;"/>
                    <path id="door31" serif:id="door" d="M1021.52,660.821L1024.74,664.039L1021.52,667.257L1018.3,664.039L1021.52,660.821Z" style="fill:rgb(235,235,235);stroke:rgb(255,0,135);stroke-width:0.5px;"/>
                </g>
                <g id="room-35">
                    <path id="wall28" serif:id="wall" d="M1030,635L1030,587L1086,587L1086,635L1030,635" style="fill:none;stroke:black;stroke-width:0.5px;"/>
                    <path id="door32" serif:id="door" d="M1021.52,606.758L1024.74,609.976L1021.52,613.194L1018.3,609.976L1021.52,606.758Z" style="fill:rgb(235,235,235);stroke:rgb(255,0,135);stroke-width:0.5px;"/>
                </g>
                <g id="room-34">
                    <path id="wall29" serif:id="wall" d="M1030,583L1030,519L1086,519L1086,583L1030,583" style="fill:none;stroke:black;stroke-width:0.5px;"/>
                    <path id="door33" serif:id="door" d="M1063.2,507.769L1066.41,510.987L1063.2,514.205L1059.98,510.987L1063.2,507.769Z" style="fill:rgb(235,235,235);stroke:rgb(255,0,135);stroke-width:0.5px;"/>
                    <path id="door34" serif:id="door" d="M1021.52,553.989L1024.74,557.207L1021.52,560.425L1018.3,557.207L1021.52,553.989Z" style="fill:rgb(235,235,235);stroke:rgb(255,0,135);stroke-width:0.5px;"/>
                </g>
                <g id="room-33">
                    <path id="wall30" serif:id="wall" d="M1090,635L1090,519L1146,519L1146,635L1090,635" style="fill:none;stroke:black;stroke-width:0.5px;"/>
                    <path id="door35" serif:id="door" d="M1119.03,507.769L1122.25,510.987L1119.03,514.205L1115.81,510.987L1119.03,507.769Z" style="fill:rgb(235,235,235);stroke:rgb(255,0,135);stroke-width:0.5px;"/>
                </g>
                <g id="room-32">
                    <path id="wall31" serif:id="wall" d="M1150,635L1150,519L1206,519L1206,635L1150,635" style="fill:none;stroke:black;stroke-width:0.5px;"/>
                    <path id="door36" serif:id="door" d="M1178.79,507.769L1182.01,510.987L1178.79,514.205L1175.58,510.987L1178.79,507.769Z" style="fill:rgb(235,235,235);stroke:rgb(255,0,135);stroke-width:0.5px;"/>
                </g>
                <g id="room-31">
                    <path id="wall32" serif:id="wall" d="M1302,635L1302,519L1354,519L1354,635L1302,635" style="fill:none;stroke:black;stroke-width:0.5px;"/>
                    <path id="door37" serif:id="door" d="M1328.36,507.769L1331.58,510.987L1328.36,514.205L1325.14,510.987L1328.36,507.769Z" style="fill:rgb(235,235,235);stroke:rgb(255,0,135);stroke-width:0.5px;"/>
                </g>
                <g id="room-30">
                    <rect id="wall33" serif:id="wall" x="1358" y="571" width="52" height="64" style="fill:none;stroke:black;stroke-width:0.5px;"/>
                    <path id="door38" serif:id="door" d="M1418.63,600.828L1421.85,604.046L1418.63,607.264L1415.42,604.046L1418.63,600.828Z" style="fill:rgb(235,235,235);stroke:rgb(255,0,135);stroke-width:0.5px;"/>
                </g>
                <g id="room-29">
                    <rect id="wall34" serif:id="wall" x="1358" y="519" width="52" height="48" style="fill:none;stroke:black;stroke-width:0.5px;"/>
                    <path id="door39" serif:id="door" d="M1383.87,507.769L1387.08,510.987L1383.87,514.205L1380.65,510.987L1383.87,507.769Z" style="fill:rgb(235,235,235);stroke:rgb(255,0,135);stroke-width:0.5px;"/>
                    <path id="door40" serif:id="door" d="M1418.63,539.967L1421.85,543.185L1418.63,546.402L1415.42,543.185L1418.63,539.967Z" style="fill:rgb(235,235,235);stroke:rgb(255,0,135);stroke-width:0.5px;"/>
                </g>
                <g id="room-28">
                    <path id="wall35" serif:id="wall" d="M1210,635L1210,519L1298,519L1298,635L1210,635" style="fill:none;stroke:black;stroke-width:0.5px;"/>
                    <path id="door41" serif:id="door" d="M1252.47,507.769L1255.69,510.987L1252.47,514.205L1249.25,510.987L1252.47,507.769Z" style="fill:rgb(235,235,235);stroke:rgb(255,0,135);stroke-width:0.5px;"/>
                </g>
                <g id="room-27">
                    <path id="wall36" serif:id="wall" d="M886,687L886,639L942,639L942,687L886,687" style="fill:none;stroke:black;stroke-width:0.5px;"/>
                    <path id="door42" serif:id="door" d="M950.378,661.044L953.596,664.262L950.378,667.48L947.16,664.262L950.378,661.044Z" style="fill:rgb(235,235,235);stroke:rgb(255,0,135);stroke-width:0.5px;"/>
                </g>
                <g id="room-26">
                    <path id="wall37" serif:id="wall" d="M766,635L766,519L834,519L834,635L766,635" style="fill:none;stroke:black;stroke-width:0.5px;"/>
                    <path id="door43" serif:id="door" d="M798.656,507.769L801.874,510.987L798.656,514.205L795.438,510.987L798.656,507.769Z" style="fill:rgb(235,235,235);stroke:rgb(255,0,135);stroke-width:0.5px;"/>
                </g>
                <g id="room-25">
                    <path id="wall38" serif:id="wall" d="M838,635L838,519L942,519L942,635L838,635" style="fill:none;stroke:black;stroke-width:0.5px;"/>
                    <path id="door44" serif:id="door" d="M859.95,507.769L863.168,510.987L859.95,514.205L856.732,510.987L859.95,507.769Z" style="fill:rgb(235,235,235);stroke:rgb(255,0,135);stroke-width:0.5px;"/>
                    <path id="door45" serif:id="door" d="M951.095,577L954.312,580.218L951.095,583.436L947.877,580.218L951.095,577Z" style="fill:rgb(235,235,235);stroke:rgb(255,0,135);stroke-width:0.5px;"/>
                </g>
                <g id="room-24">
                    <path id="wall39" serif:id="wall" d="M354,519L390,519L390,567L470,567L470,647L402,647L402,627L374,627L374,647L354,647L354,519Z" style="fill:none;stroke:black;stroke-width:0.5px;"/>
                    <path id="door46" serif:id="door" d="M479.788,603.973L483.006,607.191L479.788,610.409L476.57,607.191L479.788,603.973Z" style="fill:rgb(235,235,235);stroke:rgb(255,0,135);stroke-width:0.5px;"/>
                </g>
                <g id="room-23">
                    <rect id="wall40" serif:id="wall" x="1506" y="643" width="100" height="100" style="fill:none;stroke:black;stroke-width:0.5px;"/>
                    <path id="door47" serif:id="door" d="M1493.81,689.782L1497.03,693L1493.81,696.218L1490.59,693L1493.81,689.782Z" style="fill:rgb(235,235,235);stroke:rgb(255,0,135);stroke-width:0.5px;"/>
                </g>
                <g id="room-22">
                    <path id="wall41" serif:id="wall" d="M1514,967L1514,943L1478,943L1478,839L1402,839L1402,967L1514,967Z" style="fill:none;stroke:black;stroke-width:0.5px;"/>
                    <path id="door48" serif:id="door" d="M1439.44,827.886L1442.66,831.104L1439.44,834.322L1436.22,831.104L1439.44,827.886Z" style="fill:rgb(235,235,235);stroke:rgb(255,0,135);stroke-width:0.5px;"/>
                </g>
                <g id="room-21">
                    <rect id="wall42" serif:id="wall" x="1350" y="839" width="48" height="128" style="fill:none;stroke:black;stroke-width:0.5px;"/>
                    <path id="door49" serif:id="door" d="M1373.51,827.886L1376.73,831.104L1373.51,834.322L1370.29,831.104L1373.51,827.886Z" style="fill:rgb(235,235,235);stroke:rgb(255,0,135);stroke-width:0.5px;"/>
                </g>
                <g id="room-20">
                    <rect id="wall43" serif:id="wall" x="1298" y="839" width="48" height="128" style="fill:none;stroke:black;stroke-width:0.5px;"/>
                    <path id="door50" serif:id="door" d="M1318.64,827.886L1321.86,831.104L1318.64,834.322L1315.42,831.104L1318.64,827.886Z" style="fill:rgb(235,235,235);stroke:rgb(255,0,135);stroke-width:0.5px;"/>
                </g>
                <g id="room-19">
                    <path id="wall44" serif:id="wall" d="M1294,967L1294,839L1182,839L1182,911L1202,911L1202,967L1294,967Z" style="fill:none;stroke:black;stroke-width:0.5px;"/>
                    <path id="door51" serif:id="door" d="M1245.33,827.886L1248.55,831.104L1245.33,834.322L1242.11,831.104L1245.33,827.886Z" style="fill:rgb(235,235,235);stroke:rgb(255,0,135);stroke-width:0.5px;"/>
                </g>
                <g id="room-18">
                    <path id="wall45" serif:id="wall" d="M1178,839L1178,915L1198,915L1198,967L1126,967L1126,911L1142,911L1142,883L1162,883L1162,839L1178,839Z" style="fill:none;stroke:black;stroke-width:0.5px;"/>
                    <path id="door52" serif:id="door" d="M1169.45,827.886L1172.66,831.104L1169.45,834.322L1166.23,831.104L1169.45,827.886Z" style="fill:rgb(235,235,235);stroke:rgb(255,0,135);stroke-width:0.5px;"/>
                </g>
                <g id="room-17">
                    <path id="wall46" serif:id="wall" d="M1158,839L1158,879L1086,879L1086,839L1158,839" style="fill:none;stroke:black;stroke-width:0.5px;"/>
                    <path id="door53" serif:id="door" d="M1121.64,827.886L1124.86,831.104L1121.64,834.322L1118.42,831.104L1121.64,827.886Z" style="fill:rgb(235,235,235);stroke:rgb(255,0,135);stroke-width:0.5px;"/>
                </g>
                <g id="room-16">
                    <path id="wall47" serif:id="wall" d="M1138,883L1138,907L1122,907L1122,967L986,967L986,839L1082,839L1082,883L1138,883Z" style="fill:none;stroke:black;stroke-width:0.5px;"/>
                    <path id="door54" serif:id="door" d="M1033.09,827.886L1036.3,831.104L1033.09,834.322L1029.87,831.104L1033.09,827.886Z" style="fill:rgb(235,235,235);stroke:rgb(255,0,135);stroke-width:0.5px;"/>
                </g>
                <g id="room-15">
                    <rect id="wall48" serif:id="wall" x="938" y="839" width="44" height="128" style="fill:none;stroke:black;stroke-width:0.5px;"/>
                    <path id="door55" serif:id="door" d="M959.13,827.886L962.348,831.104L959.13,834.322L955.913,831.104L959.13,827.886Z" style="fill:rgb(235,235,235);stroke:rgb(255,0,135);stroke-width:0.5px;"/>
                </g>
                <g id="room-14">
                    <rect id="wall49" serif:id="wall" x="890" y="839" width="44" height="128" style="fill:none;stroke:black;stroke-width:0.5px;"/>
                    <path id="door56" serif:id="door" d="M914.372,827.886L917.59,831.104L914.372,834.322L911.154,831.104L914.372,827.886Z" style="fill:rgb(235,235,235);stroke:rgb(255,0,135);stroke-width:0.5px;"/>
                </g>
                <g id="room-13">
                    <path id="wall50" serif:id="wall" d="M886,967L886,839L806,839L806,871L822,871L822,911L842,911L842,967L886,967Z" style="fill:none;stroke:black;stroke-width:0.5px;"/>
                    <path id="door57" serif:id="door" d="M862.549,827.886L865.767,831.104L862.549,834.322L859.331,831.104L862.549,827.886Z" style="fill:rgb(235,235,235);stroke:rgb(255,0,135);stroke-width:0.5px;"/>
                </g>
                <g id="room-12">
                    <path id="wall51" serif:id="wall" d="M838,967L838,915L818,915L818,875L802,875L802,839L786,839L786,915L770,915L770,967L838,967Z" style="fill:none;stroke:black;stroke-width:0.5px;"/>
                    <path id="door58" serif:id="door" d="M793.406,827.886L796.624,831.104L793.406,834.322L790.188,831.104L793.406,827.886Z" style="fill:rgb(235,235,235);stroke:rgb(255,0,135);stroke-width:0.5px;"/>
                </g>
                <g id="room-11">
                    <path id="wall52" serif:id="wall" d="M766,967L766,911L782,911L782,839L730,839L730,967L766,967Z" style="fill:none;stroke:black;stroke-width:0.5px;"/>
                    <path id="door59" serif:id="door" d="M756.508,827.886L759.726,831.104L756.508,834.322L753.29,831.104L756.508,827.886Z" style="fill:rgb(235,235,235);stroke:rgb(255,0,135);stroke-width:0.5px;"/>
                </g>
                <g id="room-10">
                    <path id="wall53" serif:id="wall" d="M726,967L726,839L670,839L670,907L614,907L614,967L726,967Z" style="fill:none;stroke:black;stroke-width:0.5px;"/>
                    <path id="door60" serif:id="door" d="M698.274,827.886L701.492,831.104L698.274,834.322L695.056,831.104L698.274,827.886Z" style="fill:rgb(235,235,235);stroke:rgb(255,0,135);stroke-width:0.5px;"/>
                </g>
                <g id="room-9">
                    <path id="wall54" serif:id="wall" d="M458.521,667C443.357,687.332 433.822,712.105 432.236,739L366,739L366,699L398,699L398,671L434,671L434,667L458.521,667Z" style="fill:none;stroke:black;stroke-width:0.5px;"/>
                    <path id="door61" serif:id="door" d="M447.56,702.045L450.778,705.263L447.56,708.481L444.342,705.263L447.56,702.045Z" style="fill:rgb(235,235,235);stroke:rgb(255,0,135);stroke-width:0.5px;"/>
                </g>
                <g id="room-8">
                    <path id="wall55" serif:id="wall" d="M432.059,743C432.02,744.329 432,745.662 432,747C432,761.465 434.297,775.398 438.546,788.454L392,835L354,835L354,743L432.059,743Z" style="fill:none;stroke:black;stroke-width:0.5px;"/>
                    <path id="door62" serif:id="door" d="M440.156,762.439L443.374,765.657L440.156,768.875L436.938,765.657L440.156,762.439Z" style="fill:rgb(235,235,235);stroke:rgb(255,0,135);stroke-width:0.5px;"/>
                </g>
                <g id="room-7">
                    <path id="wall56" serif:id="wall" d="M440.086,792.914C448.501,815.959 463.067,836.054 481.792,851.208L462,871L462,967L354,967L354,839L394,839L440.086,792.914Z" style="fill:none;stroke:black;stroke-width:0.5px;"/>
                    <path id="door63" serif:id="door" d="M463.014,819.608L466.232,822.826L463.014,826.044L459.796,822.826L463.014,819.608Z" style="fill:rgb(235,235,235);stroke:rgb(255,0,135);stroke-width:0.5px;"/>
                </g>
                <g id="room-6">
                    <path id="wall57" serif:id="wall" d="M485.156,853.844C507.634,870.885 535.645,881 566,881L566,967L466,967L466,873L485.156,853.844Z" style="fill:none;stroke:black;stroke-width:0.5px;"/>
                    <path id="door64" serif:id="door" d="M524.797,864.211L528.015,867.428L524.797,870.646L521.579,867.428L524.797,864.211Z" style="fill:rgb(235,235,235);stroke:rgb(255,0,135);stroke-width:0.5px;"/>
                </g>
                <g id="room-5">
                    <path id="wall58" serif:id="wall" d="M610,873.597L610,967L570,967L570,880.941C583.973,880.531 597.412,877.977 610,873.597Z" style="fill:none;stroke:black;stroke-width:0.5px;"/>
                    <path id="door65" serif:id="door" d="M589.198,868.657L592.416,871.875L589.198,875.093L585.98,871.875L589.198,868.657Z" style="fill:rgb(235,235,235);stroke:rgb(255,0,135);stroke-width:0.5px;"/>
                </g>
                <g id="room-4">
                    <path id="wall59" serif:id="wall" d="M663.338,839L666,839L666,903L614,903L614,872.133C633.258,864.732 649.54,853.852 663.338,839Z" style="fill:none;stroke:black;stroke-width:0.5px;"/>
                    <path id="door66" serif:id="door" d="M636,850.018L639.218,853.236L636,856.454L632.782,853.236L636,850.018Z" style="fill:rgb(235,235,235);stroke:rgb(255,0,135);stroke-width:0.5px;"/>
                </g>
                <g id="room-3">
                    <path id="wall60" serif:id="wall" d="M762,639L782,639L782,755L699.764,755C699.921,752.353 700,749.686 700,747C700,710.67 685.511,677.697 662,653.55L662,575L762,575L762,639Z" style="fill:none;stroke:black;stroke-width:0.5px;"/>
                    <path id="door67" serif:id="door" d="M741.909,761.63L745.127,764.848L741.909,768.066L738.692,764.848L741.909,761.63Z" style="fill:rgb(235,235,235);stroke:rgb(255,0,135);stroke-width:0.5px;"/>
                    <path id="door68" serif:id="door" d="M685.123,699.436L688.341,702.654L685.123,705.871L681.905,702.654L685.123,699.436Z" style="fill:rgb(235,235,235);stroke:rgb(255,0,135);stroke-width:0.5px;"/>
                </g>
                <g id="room-2">
                    <path id="wall61" serif:id="wall" d="M658,649.609C645.394,637.695 630.479,628.199 614,621.867L614,575L658,575L658,649.609Z" style="fill:none;stroke:black;stroke-width:0.5px;"/>
                    <path id="door69" serif:id="door" d="M633.559,634.951L636.777,638.168L633.559,641.386L630.341,638.168L633.559,634.951Z" style="fill:rgb(235,235,235);stroke:rgb(255,0,135);stroke-width:0.5px;"/>
                </g>
                <g id="room-1">
                    <path id="wall62" serif:id="wall" d="M610,620.403C596.216,615.607 581.41,613 566,613L566,575L610,575L610,620.403Z" style="fill:none;stroke:black;stroke-width:0.5px;"/>
                    <path id="door70" serif:id="door" d="M588,617.185L591.218,620.403L588,623.621L584.782,620.403L588,617.185Z" style="fill:rgb(235,235,235);stroke:rgb(255,0,135);stroke-width:0.5px;"/>
                </g>
            </g>
        </g>
    </g>
</svg>
