<svg xmlns="http://www.w3.org/2000/svg" width="92" height="96" viewBox="0 0 92 96">
    <defs>
        <linearGradient id="a" x1="50%" x2="50%" y1="0%" y2="100%">
            <stop offset="0%" stop-color="#F99370"/>
            <stop offset="100%" stop-color="#F05A3D"/>
        </linearGradient>
        <linearGradient id="b" x1="50%" x2="50%" y1="0%" y2="100%">
            <stop offset="0%" stop-color="#EAEBFD"/>
            <stop offset="100%" stop-color="#F8F8F8"/>
        </linearGradient>
        <linearGradient id="c" x1="50%" x2="50%" y1="0%" y2="100%">
            <stop offset="0%" stop-color="#FFE566"/>
            <stop offset="100%" stop-color="#FFC736"/>
        </linearGradient>
    </defs>
    <g fill="none" fill-rule="evenodd">
        <path d="M0 0h92v96H0z"/>
        <path fill="#7C746A" fill-rule="nonzero" d="M29.885 78.465a1 1 0 1 1-1.77-.93l2.799-5.333c1.4-2.803 4.14-4.202 8.043-4.202H53a1 1 0 0 1 0 2H38.957c-3.198 0-5.224 1.034-6.263 3.113l-2.809 5.352z"/>
        <path fill="#7C746A" fill-rule="nonzero" d="M66.114 59.535a1 1 0 1 1 1.771.93l-2.8 5.334c-1.4 2.803-4.14 4.201-8.043 4.201H43a1 1 0 0 1 0-2h14.042c3.199 0 5.225-1.034 6.264-3.113l2.808-5.352z"/>
        <path fill="#3B3B3B" fill-rule="nonzero" d="M49 70h-2v-1c0-1.194.653-2 1-2h.292c-1.65-1.666-2.415-3.959-2.276-6.795.034-.697.66-1.236 1.398-1.204.738.033 1.308.624 1.274 1.322-.155 3.146 1.001 5.15 3.539 6.267.216.096.393.239.523.41H55c.347 0 1 .806 1 2v1h-3a1 1 0 0 1-1 1h-2a1 1 0 0 1-1-1z"/>
        <path fill="url(#a)" d="M39.58 16.096l12.547.16A10 10 0 0 1 62 26.255V41c0 11.046-8.954 20-20 20h-9.873c-5.523 0-10-4.477-10-10a10 10 0 0 1 .407-2.822l7.326-24.905a10 10 0 0 1 9.72-7.177z"/>
        <path fill="#3B3B3B" d="M42.491 2H51.8A3.2 3.2 0 0 1 55 5.2v10.6a3.2 3.2 0 0 1-3.2 3.2H30l4.91-11.922A8.2 8.2 0 0 1 42.49 2z"/>
        <path fill="url(#b)" d="M32.808 20.033c.146-.022.295-.033.447-.033H42a3 3 0 0 1 3 3v22.5C45 52.404 39.404 58 32.5 58H11l21-44 1 2-.192 4.033z"/>
        <path fill="#3B3B3B" fill-rule="nonzero" d="M40 70h-3v-1c0-1.194.653-2 1-2h.478c-1.777-1.848-2.607-4.44-2.462-7.674.034-.767.66-1.36 1.398-1.324.738.035 1.308.686 1.274 1.453-.155 3.461 1.001 5.666 3.539 6.894.29.14.508.374.637.651H45c.347 0 1 .806 1 2v1h-2a1 1 0 0 1-1 1h-2a1 1 0 0 1-1-1z"/>
        <path fill="#747474" d="M51.202 13C52.971 13 57 10.511 57 9.5 57 8.489 52.971 6 51.202 6 49.434 6 48 7.567 48 9.5s1.434 3.5 3.202 3.5z"/>
        <circle cx="37" cy="16" r="6" fill="url(#a)"/>
        <path fill="#3B3B3B" d="M45 30H29c0 4.97 4.084 9 9.143 9H45M43 39h2v11H34v-1.05c5.053-.501 9-4.765 9-9.95zM25.102 56.883A7474.747 7474.747 0 0 1 5 92c2.36.916 4.36.25 6-2 .378 1.575 1.252 2.791 2.621 3.649L29 66c1.604-3.148 3.564-4.817 5.879-5.008.07-.232.062-.215.147-.54-1.678-.307-3.18-.742-4.505-1.306-3.34-1.342-3.605-4.597-5.419-2.263z"/>
        <path fill="#3B3B3B" d="M32.035 59.98c-3.229 2.026-6.21 3.032-8.945 3.018l3.258-5.75c2.673 1.052 4.569 1.962 5.687 2.731z"/>
        <path fill="#F2EBDB" d="M45 8a2 2 0 1 0-4 0"/>
        <path fill="url(#c)" d="M78.002 56.498a19.949 19.949 0 0 1 0 21 19.949 19.949 0 0 1 0-21z" transform="rotate(90 78.5 66.998)"/>
        <path fill="url(#c)" d="M81.204 45.016a19.949 19.949 0 0 1 0 21 19.949 19.949 0 0 1 0-21z" transform="rotate(68 80.859 55.713)"/>
        <path fill="url(#c)" d="M74.212 33.588a19.949 19.949 0 0 1 0 21 19.949 19.949 0 0 1 0-21z" transform="rotate(23 73.862 43.837)"/>
        <path fill="#3B3B3B" d="M25.94 48.9H45a9.1 9.1 0 0 1-9.1 9.1H12c2.43-5.53 7.9-9.1 13.94-9.1z"/>
        <path fill="#F05C3F" d="M19.229 75.182c.378 1.575 1.173 2.93 2.385 4.066L29 66c1.604-3.148 3.564-4.817 5.879-5.008.07-.232.062-.215.147-.54-.704-.129-2.83-.947-6.38-2.456-5.789 10.625-8.928 16.354-9.417 17.186z"/>
    </g>
</svg>
