<?xml version="1.0" encoding="UTF-8" standalone="no"?>
<!DOCTYPE svg PUBLIC "-//W3C//DTD SVG 1.1//EN" "http://www.w3.org/Graphics/SVG/1.1/DTD/svg11.dtd">
<svg width="100%" height="100%" viewBox="0 0 150 150" version="1.1" xmlns="http://www.w3.org/2000/svg" xmlns:xlink="http://www.w3.org/1999/xlink" xml:space="preserve" xmlns:serif="http://www.serif.com/" style="fill-rule:evenodd;clip-rule:evenodd;stroke-linejoin:round;stroke-miterlimit:1.41421;">
    <g id="tictac-o">
        <path class="outer" d="M13.543,14.232C13.924,14.231 14.232,13.922 14.232,13.543L14.232,0.689C14.232,0.309 13.924,0 13.543,0L0.689,0C0.308,0 0,0.309 0,0.689L0,13.543C0,13.923 0.308,14.232 0.689,14.232L13.543,14.232ZM7.116,0.96C10.514,0.96 13.272,3.719 13.272,7.117C13.272,10.514 10.514,13.272 7.116,13.272C3.72,13.272 0.96,10.514 0.96,7.117C0.96,3.719 3.72,0.96 7.116,0.96ZM7.115,11.778C9.687,11.778 11.777,9.69 11.777,7.117C11.777,4.544 9.687,2.456 7.115,2.456C4.542,2.456 2.455,4.544 2.455,7.117C2.455,9.69 4.542,11.778 7.115,11.778Z" style="fill:rgb(209,209,209);"/>
        <path class="inner" d="M6.155,-0.001C2.759,-0.001 -0.001,2.757 -0.001,6.155C-0.001,9.552 2.759,12.31 6.155,12.31C9.553,12.31 12.311,9.552 12.311,6.155C12.311,2.757 9.553,-0.001 6.155,-0.001ZM1.494,6.155C1.494,3.583 3.584,1.494 6.156,1.494C8.729,1.494 10.816,3.583 10.816,6.155C10.816,8.728 8.729,10.816 6.156,10.816C3.584,10.816 1.494,8.728 1.494,6.155Z" style="fill:rgb(191,191,191);"/>
    </g>
    <g id="tictac-x">
        <path class="outer" d="M14.232,0.64C14.232,0.47 14.164,0.308 14.044,0.187C13.924,0.067 13.761,0 13.591,0C11.227,0 3.004,0 0.64,0C0.47,0 0.307,0.067 0.187,0.187C0.067,0.308 0,0.47 0,0.64C0,3.005 0,11.227 0,13.592C0,13.761 0.067,13.924 0.187,14.045C0.307,14.165 0.47,14.232 0.64,14.232C3.004,14.232 11.227,14.232 13.591,14.232C13.761,14.232 13.924,14.165 14.044,14.045C14.164,13.924 14.232,13.761 14.232,13.592C14.232,11.227 14.232,3.005 14.232,0.64ZM6.262,6.262L6.262,1.814C6.262,1.342 6.644,0.961 7.115,0.961C7.115,0.961 7.116,0.961 7.117,0.961C7.588,0.961 7.97,1.342 7.97,1.814L7.97,6.262L12.418,6.262C12.889,6.262 13.271,6.644 13.271,7.115C13.271,7.116 13.271,7.116 13.271,7.117C13.271,7.588 12.889,7.97 12.418,7.97L7.97,7.97L7.97,12.418C7.97,12.89 7.588,13.271 7.117,13.271C7.116,13.271 7.115,13.271 7.115,13.271C6.644,13.271 6.262,12.89 6.262,12.418L6.262,7.97L1.813,7.97C1.342,7.97 0.96,7.588 0.96,7.117C0.96,7.116 0.96,7.116 0.96,7.115C0.96,6.644 1.342,6.262 1.813,6.262L6.262,6.262Z" style="fill:rgb(212,212,212);"/>
        <path class="inner" d="M5.302,5.301L0.853,5.301C0.382,5.301 0,5.683 0,6.154C0,6.155 0,6.155 0,6.156C0,6.627 0.382,7.009 0.853,7.009L5.302,7.009L5.302,11.457C5.302,11.929 5.684,12.31 6.155,12.31C6.155,12.31 6.156,12.31 6.157,12.31C6.628,12.31 7.01,11.929 7.01,11.457L7.01,7.009L11.458,7.009C11.929,7.009 12.311,6.627 12.311,6.156C12.311,6.155 12.311,6.155 12.311,6.154C12.311,5.683 11.929,5.301 11.458,5.301L7.01,5.301L7.01,0.853C7.01,0.381 6.628,0 6.157,0C6.156,0 6.155,0 6.155,0C5.684,0 5.302,0.381 5.302,0.853L5.302,5.301Z" style="fill:rgb(237,237,237);"/>
    </g>
    <g id="tictac-b">
        <path class="outer" d="M14.232,0.641C14.232,0.471 14.165,0.308 14.045,0.188C13.924,0.068 13.762,0 13.592,0C11.227,0 3.005,0 0.64,0C0.471,0 0.308,0.068 0.188,0.188C0.067,0.308 0,0.471 0,0.641C0,3.005 0,11.227 0,13.592C0,13.762 0.067,13.925 0.188,14.045C0.308,14.165 0.471,14.232 0.64,14.232C3.005,14.232 11.227,14.232 13.592,14.232C13.762,14.232 13.924,14.165 14.045,14.045C14.165,13.925 14.232,13.762 14.232,13.592C14.232,11.227 14.232,3.005 14.232,0.641Z" style="fill:rgb(205,208,207);"/>
    </g>
</svg>
