<?xml version="1.0" encoding="UTF-8" standalone="no"?>
<svg
   xmlns:dc="http://purl.org/dc/elements/1.1/"
   xmlns:cc="http://creativecommons.org/ns#"
   xmlns:rdf="http://www.w3.org/1999/02/22-rdf-syntax-ns#"
   xmlns:svg="http://www.w3.org/2000/svg"
   xmlns="http://www.w3.org/2000/svg"
   xmlns:sodipodi="http://sodipodi.sourceforge.net/DTD/sodipodi-0.dtd"
   xmlns:inkscape="http://www.inkscape.org/namespaces/inkscape"
   width="100%"
   height="100%"
   viewBox="0 0 15 15"
   version="1.1"
   xml:space="preserve"
   style="fill-rule:evenodd;clip-rule:evenodd;stroke-linejoin:round;stroke-miterlimit:1.41421;"
   id="svg3917"
   sodipodi:docname="o2.svg"
   inkscape:version="0.92.3 (2405546, 2018-03-11)"><metadata
   id="metadata3923"><rdf:RDF><cc:Work
       rdf:about=""><dc:format>image/svg+xml</dc:format><dc:type
         rdf:resource="http://purl.org/dc/dcmitype/StillImage" /><dc:title></dc:title></cc:Work></rdf:RDF></metadata><defs
   id="defs3921" /><sodipodi:namedview
   pagecolor="#ffffff"
   bordercolor="#666666"
   borderopacity="1"
   objecttolerance="10"
   gridtolerance="10"
   guidetolerance="10"
   inkscape:pageopacity="0"
   inkscape:pageshadow="2"
   inkscape:window-width="1920"
   inkscape:window-height="1027"
   id="namedview3919"
   showgrid="false"
   inkscape:zoom="89.001173"
   inkscape:cx="23.083563"
   inkscape:cy="9.1551611"
   inkscape:window-x="-8"
   inkscape:window-y="-8"
   inkscape:window-maximized="1"
   inkscape:current-layer="g3939" />
    <g
   transform="matrix(1,0,0,1,0,-17.617)"
   id="g3915">
        <path
   d="M13.543,31.849L0.689,31.849C0.308,31.849 0,31.54 0,31.16L0,18.306C0,17.926 0.308,17.617 0.689,17.617L13.543,17.617C13.924,17.617 14.232,17.926 14.232,18.306L14.232,31.16C14.232,31.54 13.924,31.849 13.543,31.849ZM7.116,18.578C3.72,18.578 0.96,21.336 0.96,24.734C0.96,28.131 3.72,30.889 7.116,30.889C10.514,30.889 13.272,28.131 13.272,24.734C13.272,21.336 10.514,18.578 7.116,18.578ZM7.115,29.395C4.542,29.395 2.455,27.307 2.455,24.734C2.455,22.162 4.542,20.073 7.115,20.073C9.687,20.073 11.777,22.162 11.777,24.734C11.777,27.307 9.687,29.395 7.115,29.395Z"
   style="fill:rgb(209,209,209);"
   id="path3913" />
    </g>
<g
   style="clip-rule:evenodd;fill-rule:evenodd;stroke-linejoin:round;stroke-miterlimit:1.41420996"
   id="g3939"
   transform="translate(9.2889153,7.1283983)"><g
     id="g3927"
     transform="translate(-7.2573729,-6.1083051)">
        <path
   id="path3925"
   style="fill:#bfbfbf"
   d="m 22.121,0.96 c -3.396,0 -6.156,2.758 -6.156,6.156 0,3.397 2.76,6.155 6.156,6.155 3.398,0 6.156,-2.758 6.156,-6.155 0,-3.398 -2.758,-6.156 -6.156,-6.156 z M 17.46,7.116 c 0,-2.572 2.09,-4.661 4.662,-4.661 2.573,0 4.66,2.089 4.66,4.661 0,2.573 -2.087,4.661 -4.66,4.661 -2.572,0 -4.662,-2.088 -4.662,-4.661 z"
   inkscape:connector-curvature="0"
   sodipodi:nodetypes="ssssssssss" />
    </g></g></svg>