<?xml version="1.0" encoding="UTF-8" standalone="no"?>
<!DOCTYPE svg PUBLIC "-//W3C//DTD SVG 1.1//EN" "http://www.w3.org/Graphics/SVG/1.1/DTD/svg11.dtd">
<svg width="100%" height="100%" viewBox="0 0 13 13" version="1.1" xmlns="http://www.w3.org/2000/svg" xmlns:xlink="http://www.w3.org/1999/xlink" xml:space="preserve" xmlns:serif="http://www.serif.com/" style="fill-rule:evenodd;clip-rule:evenodd;stroke-linejoin:round;stroke-miterlimit:1.41421;">
    <g transform="matrix(1,0,0,1,-0.96,-0.96)">
        <g id="path3925" transform="matrix(1,0,0,1,-15.005,0)">
            <path d="M22.121,0.96C18.725,0.96 15.965,3.718 15.965,7.116C15.965,10.513 18.725,13.271 22.121,13.271C25.519,13.271 28.277,10.513 28.277,7.116C28.277,3.718 25.519,0.96 22.121,0.96ZM17.46,7.116C17.46,4.544 19.55,2.455 22.122,2.455C24.695,2.455 26.782,4.544 26.782,7.116C26.782,9.689 24.695,11.777 22.122,11.777C19.55,11.777 17.46,9.689 17.46,7.116Z" style="fill:rgb(191,191,191);"/>
        </g>
    </g>
</svg>
