<?xml version="1.0" encoding="UTF-8" standalone="no"?>
<svg
   xmlns:dc="http://purl.org/dc/elements/1.1/"
   xmlns:cc="http://creativecommons.org/ns#"
   xmlns:rdf="http://www.w3.org/1999/02/22-rdf-syntax-ns#"
   xmlns:svg="http://www.w3.org/2000/svg"
   xmlns="http://www.w3.org/2000/svg"
   xmlns:sodipodi="http://sodipodi.sourceforge.net/DTD/sodipodi-0.dtd"
   xmlns:inkscape="http://www.inkscape.org/namespaces/inkscape"
   width="100%"
   height="100%"
   viewBox="0 0 150 150"
   version="1.1"
   xml:space="preserve"
   style="fill-rule:evenodd;clip-rule:evenodd;stroke-linejoin:round;stroke-miterlimit:1.41421;"
   id="svg102"
   sodipodi:docname="x.svg"
   inkscape:version="0.92.3 (2405546, 2018-03-11)"><metadata
   id="metadata108"><rdf:RDF><cc:Work
       rdf:about=""><dc:format>image/svg+xml</dc:format><dc:type
         rdf:resource="http://purl.org/dc/dcmitype/StillImage" /><dc:title></dc:title></cc:Work></rdf:RDF></metadata><defs
   id="defs106" /><sodipodi:namedview
   pagecolor="#ffffff"
   bordercolor="#666666"
   borderopacity="1"
   objecttolerance="10"
   gridtolerance="10"
   guidetolerance="10"
   inkscape:pageopacity="0"
   inkscape:pageshadow="2"
   inkscape:window-width="1920"
   inkscape:window-height="1027"
   id="namedview104"
   showgrid="false"
   inkscape:zoom="5.72"
   inkscape:cx="75"
   inkscape:cy="75"
   inkscape:window-x="-8"
   inkscape:window-y="-8"
   inkscape:window-maximized="1"
   inkscape:current-layer="svg102" />
    
    <g
   id="tictac-x">
        
        <path
   d="M 1.813,6.262 C 1.342,6.262 0.96,6.644 0.96,7.115 v 0.002 c 0,0.471 0.382,0.853 0.853,0.853 h 4.449 v 4.448 c 0,0.472 0.382,0.853 0.853,0.853 h 0.002 c 0.471,0 0.853,-0.381 0.853,-0.853 V 7.97 h 4.448 c 0.471,0 0.853,-0.382 0.853,-0.853 V 7.115 c 0,-0.471 -0.382,-0.853 -0.853,-0.853 H 7.97 V 1.814 C 7.97,1.342 7.588,0.961 7.117,0.961 H 7.115 c -0.471,0 -0.853,0.381 -0.853,0.853 v 4.448 z"
   style="fill:#ededed"
   id="path98"
   inkscape:connector-curvature="0"
   sodipodi:nodetypes="sssscsssscsssscsssscs" />
    </g>
    
</svg>